<svg xmlns="http://www.w3.org/2000/svg" width="120" height="26" viewBox="0 0 120 26"><path fill="#69d9e9" d="M32.7 8.7l-2.3 8.8c-.7 2.6-1.3 5.1-2 7.7-.1.5.2.8.6.8h2.8c.4 0 .9-.3 1-.7.3-1.2.6-2.4 1-3.7 3.7.8 9.2-.5 10.1-4.1l2.3-8.8c1.4-5.7-12-5.7-13.5 0zm9 0l-2.3 8.8c-.7 2.6-5.3 2.6-4.6 0l2.3-8.8c.7-2.6 5.3-2.6 4.6 0zM4.3 4.3L0 20.9c-.1.4.2.7.6.7h2.8c.4 0 .9-.3 1-.7l1-3.7c3.7.8 9.2-.5 10.1-4.1l2.3-8.8c1.5-5.7-12-5.7-13.5 0zm9.1 0l-2.3 8.8c-.7 2.6-5.3 2.6-4.6 0l2.3-8.8c.6-2.6 5.3-2.6 4.6 0zm18 4.4C32.9 3 19.4 3 18 8.7l-2.3 8.8c-1.5 5.7 12 5.7 13.4 0l2.3-8.8zm-4.4 0l-2.3 8.8c-.7 2.6-5.3 2.6-4.6 0l2.3-8.8c.6-2.6 5.3-2.6 4.6 0zM62.4 0h-2.8c-.4 0-.9.3-1 .7-1.5 5.7-2.9 11.3-4.4 17-.7 2.6-5.3 2.6-4.6 0C51.1 12 52.5 6.4 54 .7c0-.4-.2-.7-.7-.7h-2.8c-.4 0-.9.3-1 .7-1.5 5.7-2.9 11.3-4.4 17-1.5 5.7 12 5.7 13.4 0C60 12 61.4 6.4 62.9.7c.2-.4-.1-.7-.5-.7zm44 8.7c-1.1 4.1-2.1 8.1-3.2 12.2-.1.4.2.7.6.7h2.8c.4 0 .9-.3 1-.7 1.1-4.1 2.1-8.1 3.2-12.2.7-2.6 5.3-2.6 4.6 0-.2.6-.3 1.2-.5 1.8-.1.4.2.7.6.7h2.8c.4 0 .9-.3 1-.7.2-.6.3-1.2.5-1.8 1.6-5.7-11.9-5.7-13.4 0zm-11.6 4.8h8.2c.4 0 .9-.3 1-.7.4-1.4.7-2.7 1.1-4.1 1.5-5.7-12-5.7-13.4 0l-2.3 8.8c-1.5 5.7 12 5.7 13.4 0 .1-.2.1-.5.2-.7.1-.2-.1-.4-.3-.4h-3.2c-.4 0-.9.3-1 .7l-.1.4c-.7 2.6-5.3 2.6-4.6 0l1-4zm1.3-4.8c.7-2.6 5.3-2.6 4.6 0l-.7 2.5h-4.6l.7-2.5zm-33.9 0c-1.1 4.1-2.1 8.1-3.2 12.2-.1.4.2.7.6.7h2.8c.4 0 .9-.3 1-.7 1.1-4.1 2.1-8.1 3.2-12.2.7-2.6 5.3-2.6 4.6 0-1.1 4.1-2.1 8.1-3.2 12.2-.1.4.2.7.6.7h2.8c.4 0 .9-.3 1-.7 1.1-4.1 2.1-8.1 3.2-12.2C77.1 3 63.7 3 62.2 8.7zM91.8 0H89c-.4 0-.9.3-1 .7-.3 1.3-.7 2.6-1 3.9-3.7-.8-9.2.5-10.1 4.1l-2.3 8.8c-1.5 5.7 12 5.7 13.4 0C89.5 12 91 6.4 92.5.7c.1-.4-.2-.7-.7-.7zM86 8.7l-2.3 8.8c-.7 2.6-5.3 2.6-4.6 0l2.3-8.8c.6-2.6 5.3-2.6 4.6 0z"/></svg>
