<svg xmlns="http://www.w3.org/2000/svg" width="917.313" height="907.688" viewBox="0 0 917.313 907.688">
  <metadata><?xpacket begin="﻿" id="W5M0MpCehiHzreSzNTczkc9d"?>
<x:xmpmeta xmlns:x="adobe:ns:meta/" x:xmptk="Adobe XMP Core 5.6-c142 79.160924, 2017/07/13-01:06:39        ">
   <rdf:RDF xmlns:rdf="http://www.w3.org/1999/02/22-rdf-syntax-ns#">
      <rdf:Description rdf:about=""/>
   </rdf:RDF>
</x:xmpmeta>
                                                                                                    
                                                                                                    
                                                                                                    
                                                                                                    
                                                                                                    
                                                                                                    
                                                                                                    
                                                                                                    
                                                                                                    
                                                                                                    
                                                                                                    
                                                                                                    
                                                                                                    
                                                                                                    
                                                                                                    
                                                                                                    
                                                                                                    
                                                                                                    
                                                                                                    
                                                                                                    
                           
<?xpacket end="w"?></metadata>
<defs>
    <style>
      .cls-1 {
        fill: #00498f;
        fill-rule: evenodd;
      }
    </style>
  </defs>
  <path id="rabbit" class="cls-1" d="M758.1,865.065c-22.538,75.043-272.088,33.182-329.284,19.909C260.34,845.941,134.735,773.517,148.264,723.026c5.995-22.373,38.374-36.65,87.284-42.159a299.794,299.794,0,0,0,25.531-51.334C229.9,616.14,192.239,593.266,180.031,560l-7.158-19.506A197.416,197.416,0,0,1,95.99,544.71a11.871,11.871,0,0,1-9.905-11.518l-0.7-56.17a11.818,11.818,0,0,1,14-11.784c27.835,4.426,71.815-2.917,94.383-18.423,15-10.3,13.552-27.206-4.281-31.985-27.557-7.383-66.4.5-97.9-6.452C7.735,389.923-9.848,286.542,60.341,235.278L51.2,210.95A24.217,24.217,0,0,1,65.6,179.91l31.095-11.4A24.357,24.357,0,0,1,127.8,182.862l7.675,20.717a193.671,193.671,0,0,1,61.864-1.711,11.827,11.827,0,0,1,10.1,11.664l0.131,56.017a11.819,11.819,0,0,1-13.7,11.724,123.876,123.876,0,0,0-70.9,10.673C99.274,303.978,101.555,320.4,128,324.085c18.024,2.5,41.761,1.113,62.409,1.84,40,1.389,70.466,19.208,88.386,44.07a116.233,116.233,0,0,1,30.1,12.73c5.867,3.391,11.784,7.123,17.718,11.139q9.261-1.251,18.684-1.712c1.689-45.546,36.88-89.674,73.672-114.665-29.074-53.7-52.763-113.88-57.883-174.827-2.509-29.876-4.407-91.686,34.478-100.767s65.527,45.316,76.861,73.825c22.112,55.609,30.183,116.18,38.147,175.23a236.136,236.136,0,0,1,95.052,25.469c36.423-47.156,73.7-95.577,120.652-132.68,24.07-19.022,74.784-52.366,103.465-25.46s-3.414,79.887-20.525,104.506c-34.907,50.222-85.5,90.454-137.582,122.266,21.446,44.141,29.6,108.605-1.982,149.362a353.47,353.47,0,0,1,44.7-3.231c66.841-.051,88.685,41.211,28.1,72.843h0c13.49,7.907,79.677,42.39,75.082,59.54-1.167,4.352-3.237,15.741-6.24,19.275-4.877,5.644-17.359,10.37-39.511,14.558a867.679,867.679,0,0,1-99.543,10.649,492.029,492.029,0,0,0-17.979,94.132c8.071,3.889,20.635,10.195,34.642,18.613a109.709,109.709,0,0,1-3.7-12.515,8.236,8.236,0,0,1,4.819-9.439l36.328-15.411a8.263,8.263,0,0,1,11.366,5.891c4.547,19.133,21.041,45.479,37.073,55.933,10.671,6.918,21.237,1.491,19.509-11.241-2.567-19.722-18.011-42.661-21.939-64.8-10.509-58.8,51.693-97.694,103.551-66.071l13.25-12.125a16.989,16.989,0,0,1,23.883,1.035l15.672,17.029a16.926,16.926,0,0,1-1.015,23.847L916.3,703.351a135.24,135.24,0,0,1,17.508,39.307,8.238,8.238,0,0,1-4.854,9.57L892.9,767.152a8.265,8.265,0,0,1-11.227-5.714,86.422,86.422,0,0,0-25.9-42.863c-14.112-12.038-24.024-6.437-19.418,11.779,3.211,12.43,10.4,27.279,15.447,40.714,24.848,66.326-35.4,121.14-93.252,91.644A11.117,11.117,0,0,1,758.1,865.065Zm76.367-395.582c27.3-7.706,45.821-26.77,41.338-42.48a18,18,0,0,0-1.633-3.843,31.593,31.593,0,0,0,24.1-9.544c0.769-.774.15-1.779-0.8-1.38-16.071,6.61-42.083-2.179-63.259-22.735s-30.783-46.27-24.592-62.573c0.268-1-.653-1.574-1.389-0.745-22.117,22.718.03,62.149,29.53,83.209a85.055,85.055,0,0,0-19.552,3.206c-27.3,7.706-45.821,26.77-41.338,42.48s30.15,22.121,57.593,14.405h0Zm2.943-83.185c24.895,24.118,56.361,32.083,70.348,17.73s5.094-45.521-19.789-69.683-56.362-32.083-70.349-17.73-5.047,45.347,19.871,69.378Zm-1.332-60.258c-3.629.287-3.6-2.97-.578-4.121,24.147-9.018,74.776,40.1,66.428,64.452-1.09,3.02-4.312,3.183-4.131-.454,1.02-22.819-39.113-61.751-61.716-60.063ZM878.831,437.7c-0.238-.857-1.224-0.841-1.314.021-1.852,14.06-18.77,28.887-42.185,35.349s-45.253,2.85-54.281-8.106c-0.525-.654-1.308-0.351-1.117.68C791.973,507.921,890.87,479.977,878.831,437.7ZM179.108,628.842c-0.5-1.254-1.964-1.039-1.942.273-0.272,21.247-22.765,46.244-56.156,60.11S54,701.408,38.7,686.67c-0.927-.9-2.09-0.047-1.542,1.22C62.415,748.5,204.432,689.558,179.108,628.842Zm-60.321,55.075c39.222-16.269,63.334-47.829,53.928-70.457s-49.009-27.78-88.1-11.476-63.334,47.829-53.928,70.457S79.565,700.186,118.787,683.917Zm-68.564-27.7c-1.471,4.271-5.046,2.613-4.927-1.32,1.469-31.47,81.247-64.63,104.691-43.466,2.923,2.7,1.515,6.378-2.536,4.406-24.994-12.063-88.236,14.145-97.24,40.424Zm301.11-385.84c0.853-.564.42-1.567-0.426-1.374-15.469,2.62-36.628-10.327-51.162-32.649s-17.845-46.769-9.188-59.891c0.538-.789-0.249-1.513-1.1-0.948-40.648,26.476,21.175,121.371,61.855,94.949Zm-48.1-36.215c17.087,26.225,43.188,39.563,58.373,29.636s13.537-39.013-3.32-65.223-43.188-39.563-58.372-29.636S286.142,207.935,303.229,234.16Zm403.828-213.7c-0.872-.234-1.411.555-0.719,1.114,10.881,9.447,13.948,32.009,6.493,55.3s-23.022,39.877-37.334,41.314c-0.866.094-.937,1.055-0.076,1.332,42.51,13.49,74.146-85.566,31.659-99.143Zm1.963,55.109c8.9-27.286,3.135-53.557-12.657-58.628S660.633,29.952,651.9,57.328s-2.96,53.6,12.832,58.675S700.457,103,709.02,75.574ZM664.758,98.8c1.545,2.607-.992,3.7-2.857,1.941-15.636-14.547,2.127-70.2,23.316-73.062,2.654-.315,4.115,2.082,1.183,3.256-17.02,7.709-31.122,51.8-21.523,67.943ZM492.131,435.742a135.914,135.914,0,0,0,36.713,9.837l-5.907,13.673a10.148,10.148,0,0,1-11.768,6.6l-13.691-3.668a10.15,10.15,0,0,1-6.894-11.6Zm4.664,56.02c-31.612-8.471-58.24-35.713-65.587-77.709a7.9,7.9,0,0,1-15.43-3.108,51.845,51.845,0,0,1,19.369-37.4,7.85,7.85,0,0,1,10.347,11.809,7.951,7.951,0,0,1-.829.632,17.912,17.912,0,0,0-1.609,1.295A114.95,114.95,0,0,0,472.172,415.7c34.337,22.543,47.433-4.878,35.465-14.8a3.377,3.377,0,0,1-.47-4.758l0.023-.027c5.182-6.262,27.027-.409,28.385,7.606a3.378,3.378,0,0,1-2.745,3.914l-0.035.006c-15.283,2.623-17.7,32.907,23.311,30.552a114.72,114.72,0,0,0,39.732-9.974c-0.241-.671-0.494-1.3-0.7-1.915a7.848,7.848,0,0,1,14.061-6.977,7.953,7.953,0,0,1,.4.963,51.843,51.843,0,0,1-1.928,42.076,7.9,7.9,0,0,1-14.917-5.023c-27.492,32.661-64.162,42.9-95.785,34.469Zm87.988-108.45a13.1,13.1,0,0,0-21.491-12.056,9.024,9.024,0,0,1-11.866-13.443,31.065,31.065,0,0,1,51.052,28.7,9.03,9.03,0,0,1-17.532-3.111ZM474.776,353.836a13.1,13.1,0,0,1,24.64.3,9.024,9.024,0,0,0,17-5.709,31.066,31.066,0,0,0-58.564-.67,9.106,9.106,0,0,0,17.132,6.177ZM295.282,795.589c69.371,40.561,180.836,70.008,260.961,66.425,18.538-.817,58.91-5.161,69.926-23.25a15.789,15.789,0,0,0,2.282-11.658c-6.442-35.082-4.306-71.132,2.016-106.76-79.929,16.978-201.2-11.271-277.527-43.666-1.087,2.835-2.243,5.93-3.545,9.22C412.36,712.522,490.4,733.621,557.25,736c3.424,0.124,3.586,5.626.181,5.6-67.686,2.157-148.541-16.475-213.734-41.408-1.107,2.735-2.281,5.547-3.467,8.4,63.081,28.286,141.926,51.279,209.663,54.686,3.413,0.169,3.5,5.6.127,5.633-68.776,1.165-150.871-19.293-215.947-46.06q-1.819,4.177-3.614,8.082c62.974,30.077,143.2,55.257,212.142,59.736,3.4,0.211,3.412,5.579.039,5.608-70.138.147-153.784-22.545-218.818-51.214q-1.857,3.793-3.771,7.62C382.972,784.7,464.872,812.34,535.233,817.99c3.334,0.287,3.194,5.521-.06,5.629-71.73-.886-157.392-26.171-222.436-56.9-1.287,2.361-2.574,4.722-3.9,7.072l3.385,1.84c62.4,33.423,144.735,62.947,215.591,69.71,3.323,0.331,3.194,5.521-.1,5.618-72.607-2.148-158.762-29.431-223.49-62.031l-3.334-1.686q-2.721,4.4-5.426,8.39ZM789.726,617.465c-4.164-3.122-8.691-6.108-10.868-7.578-19.249-12.575-39.519-24.3-59.53-35.778-7.582,3.007-15.315,5.88-23.132,8.544,0.212,7.055-12.22,10.721-35.455,14.246-88.4,12.841-245.185,4.281-321.516-44.49-31.907-20.446-42.2-40.465-38.551-57.215-13.753-14.6-27.092-29.7-39.3-45.192-2.091-2.66-4.371-5.837-6.924-9.04q-5.726,3.924-11.555,8.24c-21.426,16.653-38.937,39.625-41.418,67.372a49.109,49.109,0,0,0,.733,14.705c9.422,42.972,76.258,67.878,112.563,78.539,89.418,25.919,197.419,29.573,289.918,25.853,34.98-1.311,70.076-3.056,104.965-6.118,20.766-1.806,42.108-4.019,62.622-7.852,3.33-.741,10.943-2.293,17.62-4.19ZM395.847,450.624l10.065,7.782a237.363,237.363,0,0,1-.465,29.639c-28.971-27.916-72.589-67.268-107.056-87.234-52.231-30.23-53.584-6.52-20.127,36.221,27.3,35.027,73.736,81.479,111.425,115.23a370.845,370.845,0,0,0,58.738,19.378c90.753,21.284,189.375,16.686,274.906-22.07,41.7-18.872,47.361-37.228-9.089-37.238-39.82.014-97.283,12.328-136.331,22.019a240.89,240.89,0,0,1,14.418-25.9l12.651-1.695c78.991-10.512,74.21-103.418,44.689-157.887a13.5,13.5,0,0,1,5.082-18.431c0.09-.05.18-0.1,0.27-0.148,51.41-31.058,102.5-70.506,136.673-119.571,59.464-85.535,17.456-105.608-52.393-50.38-46.922,37.158-85.1,87.9-122.07,135.706a10.927,10.927,0,0,1-14.5,3.018,207.983,207.983,0,0,0-100.895-27.034,10.974,10.974,0,0,1-11.05-9.865c-8.246-59.919-15.893-122.942-38.068-178.662-32.878-82.753-79.294-86.373-70.507,17.217,4.941,59.872,29.526,119.5,58.519,172.1a13.5,13.5,0,0,1-4.345,18.618c-0.07.043-.14,0.086-0.211,0.128C383.288,323.957,332.651,402.014,395.847,450.624ZM287.3,641.737a288.6,288.6,0,0,1-47.034,81.354,15.746,15.746,0,0,0-3.852,11.238,37.681,37.681,0,0,0,9.069,21.091c25.022-23.62,50.053-74.481,62.1-101.112-7.289-4.192-14.11-8.213-20.322-12.583Z" transform="translate(-16.75 -0.906)"/>
</svg>
