<svg xmlns="http://www.w3.org/2000/svg" width="180" height="2040" viewBox="0 0 180 2040"><path fill="#fff" d="M124.5 37c-2.8.2-5.4.2-8.1.2.8-3.8 1.1-7.5.9-11.4 0-1.2-1.2-1.7-2.3-.8-2.9 2.6-5.7 4.8-8 7.2-.1-.2-.3-.4-.5-.6-13.3-7.3-33.6-1-43.6 9.4-10.8 11-5.4 32.9 2.9 43.7 8.9 11.4 32.6 13.3 43.8 5.2 13.2-9.3 15.3-28.8 9.9-42.5 2.3-2.4 4.2-6 5.9-8.1.6-.9.4-2.3-.9-2.3zm-11 45.1c-8.5 13.3-33 12.1-44 2.9-10.2-8.3-12.9-29.1-6.4-40.2 7.1-11.9 30.3-17.5 42.1-11 .1 0 .1.1.2.1-1.4 1.8-2.6 3.8-3.5 6.4-1 3.1-1.2 7.3-3.5 9.8-.2.2-.4.4-.6.7-3.8-3.4-10.2-5.4-14.5-2.8-6.6 4.2-10.2 13.1-5.8 20.2 3.9 6.2 13.5 7.1 19.1 2.9 5.3-3.9 9.1-13 3.4-18.1.4-.4.7-.9 1-1.3.1 0 .3.1.4.1 5-.2 10.6-.4 15.4-2.3.2-.1.5-.2.7-.4 4 11.3 2.6 22.8-4 33zM90.1 62c2.3-2.2 5.4-4.4 7.9-7 .2.2.4.3.7.3 4.3 4.6-.5 11.6-4.6 14.6-3.9 2.9-10.4.8-13.5-2.3-5.2-4.8-1.2-12.1 2.5-16 3.3-3.6 9.5-2.1 13 1-2.5 2.5-5.3 4.8-8 7.3-1.2 1.2.7 3.1 2 2.1zm26.3-15.7c-2.5 3.1-9.9 2.6-14.1 2.7 1.2-3.1 1.9-6.8 2.9-10.2 1.5-4.3 5.7-7.4 9.4-10.3 0 3.3-.5 6.5-1.3 9.7-.2.8.4 1.7 1.2 1.7 2.4 0 4.7 0 7.1-.1-1.7 2.2-3.4 4.4-5.2 6.5zm8.5-20.1c0-.2-.2-.5-.4-.7-18.3-18.5-50.9-17.1-70-1-9.1 7.7-12.5 22.7-13.3 33.7-.8 13.3 4.6 26.2 13.3 36 17.5 19.8 52.4 18.3 69.8-.2 18.5-19.6 17.7-47.8.6-67.8zm-2.5 65.9c-16.8 18.9-49 17.3-66.2.2-17.2-17.1-16-48.7.2-66.2 15.8-16.9 50.7-14.6 66.2 1.2 17.1 19.7 16.9 45.5-.2 64.8zm11.3 70.3c-10.9-23-40.3-37.2-64.5-26.9-.1 0-.2 0-.3.1-.4-.2-.8-.3-1.3 0-20.6 14-31.7 37.9-24 62.3 8.8 28 40.4 36 65.4 27.2 25.2-8.7 36-39.2 24.7-62.7zm-88.5 32c-1.2-3.8-1.7-7.7-1.8-11.5 2 2.3 4.1 4.6 6 7.1 1 1.5.8 6.3 1.5 8.6.6 2.1 2.1 4 3.3 5.6 2 3.2 3.2 6.7 3.9 10.3-5.8-5.2-10.3-12-12.9-20.1zM61 217c-.4-3.3-1-6.3-2.3-9.4-1.7-4.6-5.6-7.9-6-13.2-.4-6.5-4.2-9.6-8.3-14.4-.3-.3-.6-.4-.9-.4 1.1-16.5 11.5-31.9 25.2-41.3 3 3.9-7.2 11.1-7.4 15.3 0 1.9 0 4.6 2.7 4.8 10.4.8 3.8 10.9.2 14.4-2.7 2.7-6.9-.8-9.4-1.9-2.3-.8-6.3 1-6.9 3.3-1.3 4.8 2.1 9.4 4 13.6 2.5 6.1 11.9-6.5 16.9 8.4 1.3 3.8 2.5 5.6 6.3 6.5 7.7 2.1 6 5.2 1.5 9.4-3.1 2.9-5.4 5.8-7.7 9.6-2.9-1.2-5.5-2.8-7.9-4.7zm44.2 6.7c-11.6 4.1-23.7 3.5-34.1-.8 2.7-4.5 5.8-7.2 9.5-10.7 1.7-1.5 2.5-1.9 2.5-4.2 0-3.3-1.7-7.1-5.4-7.5-9-.8-5.6-12.8-13.3-14.2-3.5-.6-10.2 1-11.7-3.1-4.6-12.3 5.8-6.7 8.5-6.1 3.3.8 7.7-5.2 9-7.1 3.1-4.6 5-9.2.8-13.8-.6-.6-2.1-.8-2.9-.6-7.9 1 1.9-8.4 3.8-10.7 1.9-2.3 1.1-5.1-.4-7.4 7.9-3 16.3-3.4 24.4-1.6-.2 1.5.6 2.9 2 4.2 1.5 1.5 3.5 2.1 5.6 2.9 2.5 4.8 2.7 6.7.6 5.6 0 0-2.3-.8-3.1-.6-.7.2-1.3.5-1.9.8 2.6.8 6.3 3.3 7.5 3.4 1 0 2.3.4 3.3-.2 9.4-7.6-8.7-12-10.9-15.3 12.9 3.7 24.5 12.5 30.9 23.9.9 1.7 1.7 3.3 2.4 5-.4 0-.9.2-1.2.6-1 1.5-2.5 9.4-4.4 8.4-1.3-.8-3.8-.2-4.4 1.3-1.3 2.7-.8 4.8 1 7.1 4.2 5.4.6 10-.4 15.3-.4 2.5.4 17.6-8.3 12.8-.1 0-.2-.1-.3-.1-4.1-5.2 1.4-19.9-8.7-17.9C93.5 195.4 91 182 97.7 178c1.3-.8 2.7-1.3 3.5-2.7 2.1-3.6-3.5-6.1-.4-9.8 1.7-1.9 0-4.4-.8-6.1-2.2-4-3.2-6.6-3.6-8.3-.8 1.5-.9 3.4-.6 6 .2 1.9 4 5.6 2.1 7.7-.8.8-1.5 2.3-1.3 3.6.4 1.9 2.3 6.1-.4 7.3-1.5.8-2.9 1.9-3.8 3.6-1.7 4-2.9 10.5.6 14 2.9 2.9 7.1 5.4 11.3 3.3 6.7-3.6 5 9.6 5.2 11.5.2 2.7 1.5 3.6 3.3 5.2.3.3.7.4 1 .3 3.2 1.5 6.4.9 8.6-2.6 1.5-2.5 2.9-5 2.9-7.9 0-5.2 1.9-9.4 2.9-14.4.6-3.1-5.6-11.9.2-10 3.2.9 4-8.2 4.6-10.6 8.2 22.8-4.7 47.5-27.8 55.6zM91 140.1c-4.1-3.3-10.4-1.3-14.2 1.3-.8-.1-1.6.5-1.2 1.6 1.3 3.3-1.5 4.8-1.9 7.7-.2 1.7.4 3.3 1.5 4.6 1.5 1.7 4 1.9 6 1.7 2.3 0 3.5-2.1 4.6-3.8 1.9-2.9 4-5.9 5.8-8.8.9-1.2.7-3.3-.6-4.3zM82.9 153c-1.7 2.5-5.6 1.9-6.7-.8-.6-1.7.8-2.7 1.7-3.8 1.2-1.7 1.1-3.3.5-4.9 1.3-.8 2.6-1.4 4.1-2 1-.2 1.9-.4 2.9-.4 1.9-.2 2.9.6 3.5 2.9-1.8 3.2-3.9 6.1-6 9zm13.7-2c.5-.9 1.3-1.7 2.5-2.3-1.7-.5-3-.2-2.5 2.3zm6.1 19.2c0 .3.2.6.6.8 5 3.1 10.8 7.5 15.2.8 2.1-3.3 3.8-6.7 6.5-9.6 1.5-1.7 1.7-3.6.6-5.4-2.7-5.2-11 1.3-13.1 3.8-.8 1-1.5 2.3-2.1 3.3-.8 1.5-4.4.2-5.8.2-2.3 0-3.3 2.9-3.8 4.6-.3 1.3 1.1 1.9 1.9 1.5zm8.3-3.4c2.9-2.3 3.8-5.9 7.1-7.9 2.3-1.9 3.5-1 4.2 2.3-.6.6-1.3 1.3-1.7 1.9-.8 1-1.7 2.5-2.3 3.8-1.3 2.5-2.9 6.3-6.5 5.9-2.3-.4-5.2-2.9-7.3-4.2-.3-.1-.6-.1-.9 0 1.8-3.1 5.3.2 7.4-1.8zm27.8 144.3c0-8.9-.2-18.1-.8-27-.4-4.2 0-28.9-4.4-29.9-5.4-1.2-11.9-.2-17.5-.2H60.3c-6.2 0-12.3-.8-18.1 1.2-.1.1-.3.1-.4.2-.5.2-.8.8-.7 1.5 3.3 17.6 1.2 35.1 0 52.9-1 14.9-1.2 14.1 13.5 16.2 11.1 1.6 22.3 2.2 33.5 2.5v13.8c-6.6.1-13.2.3-19.8.7-1.7.2-1.7 2.9 0 2.7 13.7-.8 27.4-1 41.2-.2 1.7 0 1.7-2.5 0-2.7-6.3-.4-12.5-.5-18.8-.5 0-.1.1-.2.1-.3.2-4.5.2-9 0-13.5 3.7.1 7.3.1 11 .2 6.7 0 31.6 3.3 36-3.9 2.2-3.5 1-9.9 1-13.7zm-2.5 7.7c-.2 11.6-29.9 7.5-37.8 7.5-13.1 0-26.2-.6-39.1-2.1-3.7-.4-7.5-1-11.2-1.7-6-1-4-9.1-3.7-12.7.4-6.4 1-12.7 1.5-19.1.2-11.2 0-22.2-1.9-33.1 9.7-3 22.4-.9 32.4-.9h39.9c3.7 0 16.2-2.1 17 4.2.8 6.4 1.5 12.9 1.9 19.3 1 12.9 1.2 25.7 1 38.6zm-45.2-39.2c-1.1-.8-2.4-1.2-3.8-.8-.4.1-.8.3-1.1.5-8.6 1.8-17.6 7.9-18.1 17.6-.2 4.3.9 8.8 3.1 12.5 0 .3.2.7.5.8 3.1 4.7 7.9 8.2 13.9 8.7 11.7.8 20.4-7.5 21.9-18.8 1.8-12.1-6.3-18.1-16.4-20.5zm-7.8 2.2c-1.3 1.5-2.5 3.2-3.4 4.3-.7 1-1.2 2-1.6 3h-5.6c2.4-3.6 6.4-5.9 10.6-7.3zm-11.7 9.3l.1-.1h6.2c-.5 2.2-.5 4.4-.3 6.7v.2c-2.6.1-5.1.2-7.7.3.1-2.5.6-4.8 1.7-7.1zm-1.7 8.8c2.6-.1 5.3-.2 7.9-.3.4 2.4 1.1 5.9 2.3 9.2-2.5 0-5.1-.1-7.6-.3-1.6-2.6-2.5-5.5-2.6-8.6zm14 16.9c-4.3-1-7.7-3.3-10.1-6.4 2.3.1 4.6.2 7 .2 1.1 2.7 2.4 5 4 6.3-.4 0-.7-.1-.9-.1zm2.5-.7c-1.3-.8-2.6-3-3.6-5.5 1.2 0 2.4-.1 3.6-.1v5.6zm0-7.4c-1.4.1-2.9.1-4.3.1-1.1-2.9-1.8-5.8-2-6.8-.2-.8-.4-1.6-.5-2.4 2.3-.1 4.6-.2 6.9-.2-.1 3-.1 6.2-.1 9.3zm0-11.3c-2.4.1-4.7.2-7.1.3-.2-2.4.1-4.7.8-6.8h6.3v6.5zm0-8.3h-5.6c1-2.1 2.4-4.2 4.3-6.1.4-.4.9-.8 1.3-1.1v7.2zm1.9-7.9c3-.3 5.2 3.7 6.5 7.8-2.2 0-4.3.1-6.5.1v-7.9zm0 9.6c2.4 0 4.7-.1 7.1-.1.6 2.2 1 4.2 1.2 5.3 0 .4.1.8.1 1.1-2.8.1-5.5.1-8.3.2-.1-2.1-.1-4.3-.1-6.5zm0 8.4c2.8-.1 5.6-.2 8.4-.2-.1 3.2-.9 6.3-2.3 9.2-2 .2-4.1.3-6.1.4v-9.4zm0 11.2c1.7-.1 3.4-.2 5.1-.4-1.3 2.2-3.1 4.1-5.1 5.7v-5.3zm1.1 6.7c2.6-2.1 4.6-4.6 6.1-7.3 2.5-.3 4.9-.6 7.4-.9-3.1 4.5-8.1 7.6-13.5 8.2zm16.1-15.3c-.3 2.2-1 4.2-2.1 6-.1-.4-.5-.7-1-.7-2 .3-4.1.6-6.1.8 1.2-2.8 1.8-5.8 1.9-9 2.4 0 4.8-.1 7.2-.1.1 0 .3 0 .4-.1-.1 1.1-.2 2.1-.3 3.1zm-1-11.4c.8 2.1 1.2 4.4 1.3 6.7-.1-.1-.2-.1-.4-.1-2.4 0-4.8.1-7.2.1 0-1.2-.1-2.3-.3-3.5-.1-.7-.3-1.7-.6-2.9 2.2 0 4.4-.1 6.5-.1.3 0 .5-.1.7-.2zm-7.8-1.4c-.8-2.4-2-5.1-3.4-7.1 1.9.5 3.7 1.2 5.6 2.2 2.2 1.2 3.8 2.8 4.9 4.8-2.4 0-4.7 0-7.1.1zm-40.2-25.4l-1.1-1.1c-.1-.1-.2-.1-.3-.1-.1 0-.3.1-.4.2-.1.1-.3.1-.5.1-.4.1-.8.4-1.1.7-.2.2-.4.4-.4.6 0 .2.5 1.6.7 1.8 1.7 1.3 2.2.1 3.5-.1.2 0 .4-.1.5-.2.1-.1.1-.3.1-.4-.3-.6-.7-1.1-1-1.5zm7.4-.7c-.3-.2-1.2-.2-1.1-.6-1 .5-1.5.9-2.3 1.8-.1.1-.3.3-.3.4-.1.3 0 .7.2 1 .2.3.6.4.9.6 1.2.5 2.5.7 3.6.2.3-.1.5-.3.6-.6 0-.2 0-.4-.1-.6-.3-.9-.8-1.7-1.5-2.2zm6.1 3c.7.4 1.2.2 2-.1.4-.2.9.2 1.2 0 .4-.3.3-.9.1-1.4-.1-.5-.3-.9-.6-1.3s-.7-.7-1.2-.8c-.3 0-.7.1-1 .2-.4.1-.8.3-1.1.5-.3.3-.5.7-.3 1.1.1.2.6 1.6.9 1.8zm54.5-2.5c-1.4-.5-2.8-.4-4.3-.4-13 .4-26.1-1.4-39.1-.3-.5 0-1.1.2-1.3.7.2.6.4 1.3.5 1.9.1.2.1.5.3.6.1.1.3.1.5.2 1.5.3 2.8-.3 4.2-.1 1.8.3 5.2.9 7.1 1 2.6.2 4.9.2 7.5.1h11c6.1 0 10 .8 15.7-.7 0-1.2-.8-2.5-2.1-3zM83.8 386.8c-6.7-.4-13.3-.6-19.8-.4-4.2 0-8.1-.2-11.9 1.6-.7.3-.7 1-.4 1.6-.4 6.5-.6 52.8 2 58.9 1.4 3.2 12.7 2.6 15.2 2.6 3.6 0 12.9-.4 14.8-3.7 1.2-1.8.6-4.9.8-6.9.2-4.5.4-47.9.4-52.4.1-.9-.5-1.3-1.1-1.3zm-4.6 60.1c-2.6.8-5.3 1.2-8.1 1.6-4.6.6-15 1.4-16.2-4.7-1-5-1-47.3-.8-53.8 4.5-1.7 10.3-1 14.8-1.2 4.5 0 9.1.2 13.6.3l-.3 10.3c0 2.6.6 46.3-3 47.5zm-10 9.1h-1.4c-3 0-3.4 5.2-.9 5.2h2.3c3.3 0 2.7-5.2 0-5.2zm53.7-67.4c-9.7-8.7-23.7-11.2-36-13.4h-.3c-.2-.1-.4-.1-.7-.2-11.9-2.2-25.1-.4-37.2 1.8h-.2c-.7-.2-1.6.2-1.6 1.1-2.4 27.2-3.2 54.6.8 81.6 1.4 9.7 6.5 7.3 15.6 6.9 4.7-.2 25.5.2 28.3-4.5.1-.3.3-.5.4-.8 20.2-3.8 42.6-16.9 43-39.6.2-13-2.4-24-12.1-32.9zm9.7 29.2c-7.1.2-14.2.5-21.4.7.1-6.3-.9-12.7-3.1-18.6 6.6-.1 13.3-.2 19.9-.1 2.7 4.9 4.3 10.8 4.6 18zm-23.9 3.3v.8c-.2 7.9-2.7 14.2-6.3 19.9l-10.3.3v-20.3c5.5-.3 11-.5 16.6-.7zm-16.6-2v-18.7c4.4-.2 8.9-.4 13.3-.5 2.2 5.9 3.2 12.3 3.3 18.6-5.6.3-11.1.5-16.6.6zm-2.4-18.9v56.2c0 .7-.2 1.3-.4 1.9-.3.3-.6.7-.8 1-.2.1-.3.3-.4.5 0 .1-.1.1-.1.2s-.1.1-.1.2c-5.7 4.8-22.9 4-28 4.2-3.2.4-6.1 0-9.1-1.4-.6-3.7-1-7.5-1.4-11-.6-5.1-1-10.3-1.4-15.4-1.2-19.3-.2-38.4 1.3-57.4h.3c9.7-1.8 19.2-2.4 28.9-2.2 14 .4 11.4 13.6 11.2 23.2zm1.3-21.8c0-.1-.1-.1-.1-.2 15 3.1 28.3 8.1 35.6 19-6.4-.1-12.9 0-19.3.1-3.3-7.7-8.7-14.5-16.2-18.9zm1 3.5c5.7 4 9.8 9.4 12.4 15.5-4.1.1-8.2.2-12.3.4v-8.5c0-2.4.1-5-.1-7.4zm.1 70.6v-7.9c2.9-.1 5.8-.2 8.6-.3-2.6 3.6-5.5 7-8.5 10.5-.1-.9-.1-1.7-.1-2.3zm.3 6c4.2-4.7 8.7-9.1 12.3-14.4 5.9-.2 11.8-.4 17.8-.5-7.8 7.7-18.9 12.7-30.1 14.9zm32.2-17.3c-.2-.1-.4-.2-.7-.2l-17.7.6c3.5-6.2 4.7-13.4 5-20.6 7.2-.3 14.3-.5 21.5-.7-.2 8.3-3.3 15.3-8.1 20.9zm11.8 127.2c-3.2-7.6-8.3-13.8-11-21.4 3.2-2.1 2-13.4 2-15.4.4-6.7.4-13.4.4-19.9 0-3.6.8-8.2-1.3-11.3-.6-.8-1.9-.8-2.9-.8-6.3.2-12.6-.4-18.8-1.3-12.3-1.7-25.1-2.7-38.3-2.3-3.6 0-11.9-1-11.7 4.4.6 14.6 1.2 29.1 1.8 43.7-.4.5-.5 1.4.1 1.8-3.7 6.3-19.4 31.7-14.1 36 4.4 4 11.3 1.5 16.7 1 10.7-.8 21.3-1 32-1.3 10.7-.2 21.3-.4 32-.4 4 0 11.9 1.7 15.1-1.5 2.6-2.3-1-9-2-11.3zm-65.9-69.9c16.7-.4 33.1 3.1 49.8 3.8 7.3.2 5.2 4 5.2 9.4 0 4 0 7.9-.2 11.9 0 4-.4 7.9-.6 11.9-.4 9.2-6.9 9.4-14.2 9.4H85.8c-8.5 0-18 1.1-26.4-.9-.4-7.8-.6-15.5-1-23.4 0-4.2-.2-8.2-.4-12.1-.5-8.9 5.1-9.7 12.5-10zm52.7 80.4c-8 .2-16.1.2-24.1.4-14.6.2-29.3.6-44.1 1.9-2.7.2-5.2.4-8 .6-5.6.4 1.7-15.1 1.5-14.4 2.9-7.1 7.1-13.8 10.6-20.7 9.8 2.3 20.8 1 30.8 1 10.5 0 22.4 1.5 32.9-.1 2.9 8.7 8.5 15.9 12.1 24.4 3.8 9-5.8 6.7-11.7 6.9zm-15.7-10.5H83c-1.7.2-1.7 2.7 0 2.7h24.5c1.7 0 1.7-2.7 0-2.7zm-24.2-32c1.3 1 2.5 1.4 3.7 1.5h.2c1.5 0 2.8-.7 3.6-2 0 0 0 .1.1.1 1.4 1.7 3.4 2.8 5.5 2.8h.7c.9-.1 1.6-.4 2.2-.9.6-.5 1.9-2.2 2.3-2.7 2.6-3.6 4.3-6.7 4.3-10.3v-1.4l-1.3.4c-2.7.9-5-.4-5.9-3.5-.1-.3.2-1.2.4-1.9.1-.5.3-1 .4-1.5.3-.6.5-1.2.2-1.8-.2-.4-.6-.6-1.1-.6-.7 0-1.6.4-2.8 1.1l-.1.1c-.9.5-1.9 1.5-2.5 2.4-.5.7-.7.8-.7.9-.3-.1-.9-1-1.1-1.4-.3-.5-.6-1-1-1.3l-.6-.5c-1.6-1.3-2.9-2.3-5.4-2.3-1.2 0-2.7 0-4.1 1-.8.6-1.5 1.5-2 2.9-1.4 3.2-1.6 7.1-.6 10.7.9 3.3 2.9 6.3 5.6 8.2zm-3.2-18.3c.4-1 .9-1.7 1.4-2 .7-.5 1.7-.6 2.9-.6 1.7 0 2.6.7 4.1 1.9l.6.5c.1.1.3.5.5.8.6 1 1.4 2.4 2.8 2.4 1.3 0 2.2-1.4 2.4-1.8.4-.6 1.1-1.3 1.8-1.7l.1-.1c.3-.1.5-.3.7-.4l-.3.9c-.3 1.1-.6 2.1-.4 3 1 3.6 3.7 5.7 7 5.2-.3 2.2-1.5 4.6-3.8 7.8-.4.5-1.6 2-2 2.3-.3.2-.6.3-1.1.4-1.6.2-3.3-.6-4.4-2-.3-.4-.9-1.1-1.8-1.1-.3 0-.5.1-.8.2-.4.2-.6.6-.8.9-.4.7-1.1 1.1-2.1 1.1-.8 0-1.6-.4-2.6-1.1-2.3-1.7-4.1-4.3-4.9-7.3-.7-3-.5-6.5.7-9.3zm11.8-3.4c1.5-.2 3.1-.5 4.6-1.4 1.1-.7 1.9-1.7 2.6-2.6.7-.9 2.2-2.8 1.6-4.8l-.2-.8-.8.1c-2.4.3-4.5 1.1-6 2.5-1.8 1.6-2.9 3.9-2.8 6.1v1.1l1-.2zm3-5.5c1.2-1 2.7-1.6 3.9-1.8-.2.7-.7 1.4-1.2 2.1-.6.8-1.3 1.6-2.1 2.2-.7.5-1.6.7-2.5.9.1-1.3.8-2.5 1.9-3.4zm21.5 108.9c0-8.1-10.2-6.3-15.7-6.3-8.1 0-16.3.4-24.4.6-3.3.2-8.1-.8-11.1 1.7-.7.6-.4 1.5.3 1.9 0 .1-.1.2-.1.4-1.5 14.6-1.9 30-2.1 44.9-.2 7.7.2 15.4.4 23.2.2 6.1-1 14 .6 19.8 1.9 6.7 17.7 4.2 23 4.4 7.9.2 15.9 0 23.8-.6 1.5 0 3.3-.4 4-1.9 2.1-3.8.6-10.9.6-14.8 0-8.1.2-16.3.2-24.4.3-16.3.5-32.6.5-48.9zm-9.8 87.5c-9.8.8-20.5.6-30.9 0-12.7-.8-9.2-19.6-9.4-29-.6-19.8 0-40.5 1.9-60.1 0-.4-.1-.6-.3-.8 2.8-1.1 10.2-.6 12.4-.6 5.4-.2 10.9-.4 16.3-.4 6.1-.2 17.1-2.9 16.9 7.5 0 5.4-.2 10.9-.2 16.3-.2 10.9-.2 21.7-.4 32.6 0 6.1 3.3 33.8-6.3 34.5zm-1.3-81.6H71.7c-1.4 0-1.6 1.9-.7 2.5-.1.2-.2.4-.2.6-.2 10.4-.2 21.1.2 31.5.2 8.1-.4 18.2 2.3 25.7 1.5 4 29.4 1.3 32.8-1.9 2.9-2.9 2.3-14.8 2.7-18.6 1-12.1.8-24.2 0-36.3-.1-2.3-1.2-3.5-3.5-3.5zm-1 55.5c-.4 3.1-17.1 2.9-20.2 3.1-10.6.6-9.6-9-10-16.5-.8-13.1-.8-26.3-.6-39.4 5.7 0 11.4-.2 16.9-.2 7.9 0 15.9-1.5 16.3 9 .5 14.6-.3 29.4-2.4 44zm-12.7 16c-1.1-.3-2.2 0-3.3-.6-.6 0-.6 3.6 0 3.9 1.1.6 2.2.3 3.3.6.6 0 .6-3.6 0-3.9zm-31.1-53.2c1-1.3-.8-3.1-1.9-1.9-9 11.1-6.9 24.8.8 35.9 1 1.5 3.1 0 2.3-1.3-6.9-9.9-9.4-22.6-1.2-32.7zm-6.1-6.6c.8-1.5-.8-3.3-1.9-2.1-12.5 15.2-8.6 34.2.6 50.1.8 1.5 3.1.2 2.3-1.3-8.5-14.6-12.7-32.5-1-46.7zm66 4.8c-1-1-2.9.8-1.9 2.1 7.1 8.6 7.3 22.5.8 31.1-1 1.3 1.3 2.7 2.3 1.3 7.3-9.7 6.7-25.1-1.2-34.5zm7.9-8.8c-.8-1.7-3.1-.2-2.3 1.3 8.6 15.7 11.1 33.4.6 48.8-1 1.5 1.3 2.7 2.3 1.3 11.1-16.1 8.4-35.1-.6-51.4zm-32.2 20.4c-.1-.3.1-1 .3-1.6.1-.4.3-.9.3-1.3.2-.5.5-1.1.1-1.6-.2-.3-.5-.5-1-.5-.6 0-1.3.4-2.4 1l-.1.1c-.8.4-1.6 1.3-2.1 2-.4.6-.6.7-.6.7-.2-.1-.7-.9-.9-1.2-.3-.5-.5-.9-.8-1.1l-.5-.4c-1.3-1.1-2.5-2-4.6-2-1 0-2.3 0-3.4.8-.7.5-1.2 1.3-1.7 2.4-1.2 2.7-1.4 6.1-.5 9.1.8 2.9 2.6 5.5 4.8 7.1 1.1.8 2.2 1.2 3.2 1.3h.1c1.3 0 2.4-.6 3.1-1.7l.1.1c1.2 1.5 2.9 2.4 4.7 2.4h.6c.8-.1 1.4-.3 1.8-.7.5-.4 1.7-1.8 2-2.3 2.2-3 3.6-5.7 3.6-8.7v-1.2l-1.1.4c-2.4.7-4.3-.5-5-3.1zm1.1 11.5c-.3.4-1.4 1.7-1.7 2-.2.2-.5.3-.9.3-1.3.1-2.8-.5-3.7-1.7-.2-.3-.8-.9-1.5-.9-.2 0-.4.1-.6.2-.3.2-.5.5-.7.8-.3.6-1 .9-1.7.9s-1.4-.3-2.2-.9c-2-1.4-3.5-3.7-4.2-6.2-.7-2.6-.6-5.6.4-8 .4-.8.7-1.4 1.2-1.7.6-.5 1.5-.5 2.5-.5 1.4 0 2.2.6 3.4 1.6l.5.4c.1.1.3.4.4.6.5.9 1.2 2.1 2.4 2.1 1.1 0 1.8-1.2 2.1-1.5.3-.5 1-1.1 1.5-1.4l.1-.1.6-.3c-.1.3-.1.5-.2.8-.3.9-.5 1.8-.3 2.5.9 3.1 3.2 4.8 6 4.4-.5 1.9-1.4 3.8-3.4 6.6zm-6.8-16.4c1.3-.2 2.7-.4 3.9-1.2.9-.6 1.6-1.4 2.2-2.2.6-.8 1.9-2.4 1.4-4.1l-.2-.7-.7.1c-2 .2-3.8.9-5.1 2.1-1.6 1.3-2.5 3.3-2.4 5.1v.9h.9zm2.5-4.7c1-.9 2.3-1.3 3.3-1.5-.1.6-.6 1.2-1.1 1.8-.5.7-1.1 1.4-1.8 1.8-.6.4-1.4.6-2.2.7.3-1 .9-2 1.8-2.8zm50.4 102.4c-12-4.2-24.5-10.4-37-12.8-.2 0-.5 0-.6.1-.4-.3-1-.2-1.3.3-6.5 11.3-10.2 24.3-14.8 36.3-2.6 6.9-5.4 13.5-8 20.4-.1.2-.1.3-.2.5l-4.2-10.5c-5.3-13.3-10.6-26.7-16.1-39.9-2.7-6.6-10.4-1.6-14.8.2-6.6 2.8-13.1 5.8-19.6 8.8-2.6 1.3-6.9 2.1-8.4 5.1-.4.7.2 1.4.9 1.5 0 .1 0 .2.1.3 3.7 12.4 8.6 25.1 13.4 37.3 2.4 6.4 5.4 12.5 8.2 18.7 2.2 4.9 3.9 11.7 7.2 15.9 3.8 4.8 15.8-2.6 20.1-4.2 6.4-2.5 12.6-5.2 18.7-8.4 3.4 1.3 6.9 2.2 9 3 6.6 2.3 13.3 3.9 20 5.7 6 1.7 12 4.6 18.1 5.7.3.1.8-.1.9-.4 3.3-4 4.6-10 6.7-15 2.6-6.7 5-13.2 7.6-19.9 4.2-12.2 11.4-26.2 12.9-39 .6-4.8-15.9-8.6-18.8-9.7zm-60.8 69c-7.7 4-16.4 7.4-25.1 10.4-10.6 3.6-14.1-12.9-17.4-20.5-7.2-15.9-13.6-33-18.7-49.6-.1-.3-.3-.5-.5-.6 1.9-1.9 8-3.9 9.9-4.7 4.3-2 8.7-4 13.1-5.8 4.8-2.2 12.9-8.2 16.3.4 1.8 4.4 3.5 8.9 5.3 13.3 3.5 8.9 7.1 17.8 10.6 26.7.7 1.6 2.4 5 4.2 8.9-2.1 4.2-5 9.8-4.3 13.1.6 3.4 3.9 5.8 7.7 7.7-.4.3-.7.5-1.1.7zm74.9-51.4c-6.7 20.3-14.2 40.3-22.2 60.3-2.5 6.1-27.4-3.8-32.2-5.3-4.4-1.3-8.8-2.8-13.1-4.4-.2-.1-.5-.2-.7-.3-1.5-.6-3-1.3-4.4-2-1.3-.7-2.5-1.4-3.8-2.1-5.2-2.8-1.3-8.6.1-12 .1-.4.3-.7.4-1.1.4-1 .7-1.9 1.1-2.9 3.4-8.9 7-17.8 10.3-26.6 4.2-10.5 7.4-21.8 13-31.7h.1c9 1.7 18 5.9 26.6 9 9 3.4 29.1 6.2 24.8 19.1zm-19.5-10.8c-5.5-2.5-11-4.6-16.6-7-4.3-1.6-9.1-4.5-13.8-4.5-.8.2-1.1 1.3-.8 2-4.1 10.4-8.3 20.8-11.9 31.2-1.7 4.9-7.8 17.3-5.6 22.3.6 1.4 4.2 2.4 5.2 2.8 5.3 2 10.6 4.1 15.8 6.1 3.3 1.2 18.4 9.6 21.2 7.3 5.9-4.6 8.7-17.6 11.3-24.4 3.5-8.5 8.7-18.6 10.2-27.6.5-3.4-12.8-7.2-15-8.2zm11.8 12c-5.3 14.3-10.5 28.7-17 42.4-2.8 6.2-17.5-2.2-21.4-3.7-7.4-2.8-20.8-4.8-18.2-15.2 3.9-15.2 10-29.8 15.9-44.2 8.8 1.5 42.9 14.5 40.7 20.7zM108.5 812c-1.3-.7-2.6-1-4-1.3-.5-.2-1.2.5-1.2 1.1-.2.5.3.9.9 1.1 1.1.2 2.3.7 3.4 1.3 1.3.7 2.2-1.5.9-2.2zm1.9-45.1c-1-1.1-2.6-1.4-3.6-1.5h-.3c.6-1.3 1.2-2.6 1.8-3.8.2-.3.1-.8-.3-1l-.2-.1c-.4-.2-.9-.1-1.1.3-2.2 4.2-3.9 8.6-5.1 13.1-.1.3.1.6.4.7l.5.2c.3.1.7-.1.8-.4l1.4-5.2c0-.1.8-2.1.9-2.1h.8c1 .2 2 .3 2.5.9.3.3.4.7.5 1.1.7 2 .6 4.3-.2 6.2-.1.3 0 .6.3.7l.4.2c.4.2.8 0 1-.4.9-2.3 1-5 .2-7.3 0-.4-.2-1.1-.7-1.6zm14.5 4.5l-8.6-2.7c-.5-.1-1 .1-1.1.6-.1.5.1 1 .6 1.1l3.7 1.1-1.8 6.6c-.1.5.1 1 .6 1.1.5.1 1-.1 1.1-.6l1.8-6.5 3.2 1c.5.1 1-.1 1.1-.6.1-.5-.1-1-.6-1.1zm14.1-2.2c-.4-.2-1-.1-1.2.3-.9 1.6-1.7 3.2-2.5 4.8-.2-.1-.4-.2-.6-.2-1.2-.4-2.4-.7-3.7-.8-.8-.1-1.7-.1-2.4.3-.9.5-1.3 1.5-1.6 2.3-.6 1.6-1 3.9-.1 6.1.6 1.3 1.7 2.4 2.9 2.8.4.2.8.2 1.2.3 2.7.2 3.1-1.7 3.4-3 0-.2.1-.5.2-.7 1-3.9 2.9-7.5 4.8-11 .1-.4 0-1-.4-1.2zm-6.2 11.8c-.1.3-.1.5-.2.8-.3 1.5-.4 1.7-1.5 1.6-1.1-.1-2.2-.9-2.7-2.1-.7-1.6-.3-3.5.1-4.8.2-.5.4-1.1.8-1.3.4-.2.9-.2 1.4-.1 1.1.1 2.2.4 3.3.7.1 0 .2.1.2.1.1 0 .2.1.2.1-.6 1.6-1.2 3.3-1.6 5zm-74.7-31.5c-.9-1.8-2.2-2.5-4.1-1.7-9.2 3.8-18.1 7.6-27.3 11.4-1.1.5-.7 2.1.3 2.3 0 .2 0 .4.1.6 3.3 8.6 6.9 17.2 10.8 25.6 2.9 6.6 5.8 14.9 10.5 20.1 2.5 2.7 24.3-8.9 26-12.6 1.4-3.4-3.1-12.8-4.1-16.1-3.2-10.2-7.5-20-12.2-29.6zm-1.6 53.3c-8.4 4.1-10.8-4.1-13.7-10-5.1-10.4-9.5-21.1-13.8-31.9 4.6-2 9.2-4 13.7-5.9 6.4-2.7 12.4-6.6 16.3 1.8 5.4 11.7 9.8 24 13 36.7.6 2.6-13.1 8-15.5 9.3zm10.5 7.9c-1 .1-1.8.7-2.9.6-.5.2.7 3.1 1.3 3.2 1.1.1 1.9-.5 2.9-.6.5-.2-.7-3.2-1.3-3.2zm-11-36.9c-.2-.2-.2-.9-.3-1.4 0-.4-.1-.8-.2-1.2 0-.5 0-1-.4-1.3-.3-.2-.6-.2-1-.1-.5.2-1 .7-1.6 1.6l-.1.1c-.5.6-.9 1.6-1 2.3-.1.6-.3.8-.3.8-.2 0-.9-.5-1.2-.7-.4-.3-.7-.5-1-.6l-.6-.2c-1.4-.4-2.7-.8-4.4-.1-.8.3-1.9.8-2.5 1.8-.4.6-.6 1.5-.6 2.6 0 2.6.9 5.4 2.6 7.6 1.6 2.1 3.9 3.6 6.3 4.2 1.2.3 2.2.3 3 0h.1c1-.4 1.7-1.3 1.9-2.4h.1c1.5.8 3.2.9 4.6.3.2-.1.3-.1.4-.2.6-.3 1-.7 1.3-1.2.3-.5.7-2 .8-2.5.8-3.2 1-5.8 0-8.4l-.4-1-.8.7c-1.3 1.5-3.3 1.2-4.7-.7zm5.1 2.5c.4 1.6.3 3.6-.4 6.5-.1.5-.6 1.9-.7 2.2-.1.2-.3.4-.6.6-1 .6-2.4.5-3.6-.1-.3-.2-.9-.5-1.5-.3-.2.1-.3.2-.5.4-.2.3-.2.6-.3.9-.1.6-.5 1.1-1.1 1.4-.5.2-1.2.2-2.1 0-2.1-.5-4.1-1.8-5.5-3.6-1.5-1.9-2.3-4.4-2.3-6.6 0-.8.1-1.4.4-1.8.3-.6 1-.9 1.8-1.2 1.1-.5 2-.2 3.3.2l.6.2c.1 0 .4.2.6.4.7.5 1.7 1.3 2.6.9.9-.4 1.1-1.6 1.2-1.9.1-.5.4-1.2.7-1.7l.1-.1c.1-.2.2-.3.3-.4 0 .2.1.5.1.7.1.8.2 1.6.6 2.2 1.7 1.8 4.2 2.4 6.3 1.1zM49 772.2l.7-.4c1-.6 2-1.2 2.8-2.3.5-.8.8-1.7 1-2.5.2-.8.7-2.6-.3-3.8l-.4-.5-.5.3c-1.6.9-2.8 2-3.5 3.4-.8 1.6-.9 3.5-.2 5l.4.8zm1.1-5.1c.5-1.1 1.4-1.8 2.2-2.4.1.5-.1 1.2-.3 1.8-.2.7-.4 1.5-.8 2.1-.4.5-.9 1-1.5 1.3-.2-.8 0-1.8.4-2.8zM70 871.2c-.4-.3-.7-.7-1.1-1 2.5-2.4 5.1-4.9 7.5-7.3 1.3-1.3-.6-2.9-1.9-1.9-2.5 2.5-5.1 4.9-7.6 7.4-5.3-5.2-10.2-10.5-14.8-16.1-.9-1-2.3 0-2.2 1.2-13 15.9-2.2 42.2 19.5 40.9 2.5-.2 17.3-5.6 14.2-10.2-3.2-5.1-9.3-8.8-13.6-13zm7 17.9c-7.9 5.6-17.7 1.9-24-4.2-8.2-7.8-8.1-20.5-1.4-29.3C56 861 60.8 866 66 870.9c2.7 2.7 5.6 5.2 8.6 7.9 3.7 3.5 8.1 6.2 2.4 10.3zm-12.3 14.6c-3.8-5.8-10.6-11-16.1-15.4-.7-.6-1.6-.2-2 .4-.3.1-.5.3-.7.7-1 3.8-2.3 7.5-3.3 11.5-.6 1.9-2.5 5-1.3 7.1.6 1.3 2.7.8 3.8.8 4.4-.2 8.6-.2 12.9-.4 3-.3 9.9.3 6.7-4.7zm-21 2.7c1-5.1 3-10.1 4.5-15.2 3.2 2.6 6.1 5.4 9.1 8.3 1.5 1.5 2.9 2.9 4.4 4.6 1.7 1.3 1.7 1.9-.4 1.5-1.7 0-3.1.2-4.8.2-2 0-12.6 0-12.8.6zm94.7-5.6c-6.7-6.9-20.7-17.5-31.4-14.8-.4-.1-.7 0-1.1.4l-.1.1-.3.3c-9.3 10.3-14.1 23.1-18.2 36.3-3.8 11.9-5.4 12.9 6.7 17.5 6.9 2.7 14.2 5.2 20.9 7.7 1.9.6 4 1.7 5.4-.6 8.6-13.8 13.8-30.4 18.6-45.6.1-.5-.1-1.1-.5-1.3zm-5.9 11.7c-2.5 7.3-5.4 14.6-8.6 21.7-1 2.5-2.1 4.8-3.3 7.1-2.5 5.4-5.6 4-10.4 1.9-4-1.7-8.3-2.7-12.5-4-9.8-2.9-10.8-6-7.9-15.2 4-12.3 8.2-24.3 16.7-34.3.6.1 1.1-.2 1.2-1 .4-2.9 18.1 5.2 18.8 5.6 9.2 5.1 9.2 9.4 6 18.2zm-24.9-16.6c-.2-.2-.5-.4-1-.3-2.3.2-2.5 1.7-3.3 3.5-.6 1.7-4.2 7.3-2.5 9 2.7 2.7 6.9 4.6 10.4 6.3 3.5 1.7 8.6 4.4 12.5 4.6 1.9 0 3.5-.4 4.4-2.3 1-2.5 3.8-6.7 1.9-9.4-4.4-6.3-15.1-9.9-22.4-11.4zm18.5 18.9c-1.5 4.2-14.8-3.3-16.7-4.6-1.7-.8-6.5-2.7-5.4-5.4.4-.7 1.6-5.1 2.5-6.5 4.6.8 9 2.3 13.1 4.6 2.5 1.3 5 2.9 7.1 4.8 2.3 1.9.2 4.6-.6 7.1zm-24.4.2c-1.3-.6-2.7-1.3-4.2-1.5-1.5-.4-2.3 2.3-.6 2.5 1.3.2 2.5.6 3.5 1.3 1.5.8 2.7-1.5 1.3-2.3zm10.8 8.1c1.5.6 2.3-1.9.6-2.5-1.5-.6-3.1-1.3-4.6-1.9-1.7-.6-2.3 1.9-.6 2.5 1.5.7 3.1 1.3 4.6 1.9zm8.8 1.5c-1 0-2.1-.2-2.9-.6-1.7-.4-2.3 2.1-.8 2.7 1.3.4 2.5.6 3.8.6 1.5 0 1.5-2.7-.1-2.7zm-23.4-1.1c-1-.6-1.9-1.3-2.7-2.1-1.3-.8-3.1.8-1.9 2.1 1 .8 2.1 1.7 3.3 2.3 1.5.9 2.8-1.4 1.3-2.3zm10.4 3.8c-1-.8-2.3-1.3-3.8-1.3s-1.5 2.7.2 2.7c.8 0 1.7.4 2.3.8 1.3 1.1 2.8-1.2 1.3-2.2zm9 5.4c-.8-.2-1.5-.4-2.1-1.3-1.3-1.3-2.9.6-1.9 1.9.8 1 2.1 1.7 3.3 1.9 1.7.2 2.4-2.3.7-2.5zm-22.9-2.3c-.6 0-1.5-.2-2.1-.2s-1.5.2-1.7.8c-.2.6.2 1.5.8 1.7.6 0 1.5.2 2.1.2.6 0 1.5-.2 1.7-.8.2-.7-.2-1.5-.8-1.7zm12.3 4.8c-1.5-.2-3.1-.6-4.6-1.3-1.5-.4-2.1 2.1-.6 2.7 1.7.6 3.3 1 5.2 1.3 1.6.2 1.6-2.5 0-2.7zm8.1 2.9c-1.5-.6-2.7-1-4.4-1-1.5-.2-1.5 2.5.2 2.5 1 0 2.1.4 2.9.8 1.5.6 3-1.4 1.3-2.3zm-38.8-6c-2.9-.2-5.8-.2-8.6 0-1.3 0-8.1 1.7-8.1-1.3-.2-6.3-.2-12.7-.4-19-.2-1.7-2.9-1.7-2.7 0 0 4 .2 8.1.2 12.1 0 2.7-.8 7.9.4 10.2.8 1.5 2.5 1.5 4 1.3 5-.8 10-1 15.2-.6 1.7 0 1.7-2.5 0-2.7zm7.9-60.7c7.3-.2 14.8-.2 22.1 0 2.5 0 11.9-.4 12.9 2.3 1.5 3.5 1.3 8.1 1.3 11.7 0 1.7 2.7 1.7 2.7 0 0-4.8 1-15-5.4-16-10.8-1.7-22.5-.6-33.6-.4-1.6-.1-1.6 2.4 0 2.4zm-29 152.4c4.2 3.3 10.5 2.7 14.9-.2 5.2-3.3 3.1-11.3 1-15.9-2.7-5.8-10.6-4-14.9-1.5-6 3.6-5.2 11.7-2.3 16.9.3.6.8.8 1.3.7zm.4-13.4c2.3-4 10.8-5.6 13.3-1.5 2.3 3.8 3.1 10.2-1 12.9-3.1 2.1-8.5 2.1-11.2-.4-.2-.2-.5-.3-.7-.3-1.9-3.3-2.4-7.1-.4-10.7zm21.6 25.5c-4.6-6.3-14.5-9-21.4-5.2-10.2 5.4-11.2 16.1-13.9 26.3-.5 1.6 1.1 2.3 1.9 1.5 8.1.2 15.9.4 24 .6 3.9.2 10.6 1.9 14.3-.4 1.9-1 .6-6.1.4-7.3-.8-5.7-2-10.7-5.3-15.5zm-6.5 20.7c-8.6-.2-17.4-.4-26.1-.8 1.6-6.6 2.7-14 7.2-19.3 7.7-9 20.3-4.2 25.3 4.6 2.1 3.8 2.5 8.8 2.9 12.9.5 4.9-6.1 2.6-9.3 2.6zm39.9-42.6c0 6.1 2.5 12.7 8.5 14.4.2 0 .4 0 .6-.1.2.1.5.1.8.1 2.7-.6 5.2 0 6.8-2.7 1.7-2.5 2.7-5.4 2.9-8.6.6-5.6-4.4-11.1-10-11.3-5.1-.2-9.6 2.6-9.6 8.2zm16.8 5.2c-.4 1.9-1.5 4-2.7 5.6-.8.8-3.5.6-4.8.8-4.1-1-5.6-4.8-6.4-8.6-.4-2.3-.8-4.8 1-6.9 1.7-1.9 4.6-2.1 6.6-1.7 5.3 1 7.1 6.4 6.3 10.8zm5.6 20.3c-4.6-9.8-13.3-10.4-22.6-8.1-9.1 2.3-12.9 17.3-14.1 25.3-.1 1.3.9 1.9 1.7 1.8.2.3.5.5 1 .5 7.3-.2 14.3-.2 21.6-.4 4.1 0 13.3 1.5 16.8-.6 3.9-2.4-3-15.4-4.4-18.5zm-9.3 16.3c-8.3.2-16.4.4-24.7.4 1.3-6.6 3.5-12.5 7.2-18.2 3.7-5.8 13.3-6.7 18.9-3.8 4.6 2.3 6.6 8.6 8.1 12.9.6 2.1 1.2 4.4 2.1 6.5.8 2.6-10.6 2.2-11.6 2.2zM65.3 999c.6-.2 1-.6 1.7-.8 1.5-.8.2-2.9-1.2-2.3-.6.2-1 .6-1.7.8-1.5.8-.3 3.1 1.2 2.3zm5.6-6.3c.2-.2.6-.4.8-.6 1.5-1 0-3.1-1.2-2.3-.2.2-.6.4-.8.6-1.5.8-.1 3.1 1.2 2.3zm5.6-4.2c.8-.4 1.7-.8 2.5-1 1.5-.6.2-2.9-1.2-2.3-.8.4-1.7.8-2.5 1-1.5.9-.3 3.2 1.2 2.3zm8.9-6.7c-1 0-2.1.2-2.9.8-1.5.8-.2 3.1 1.2 2.3.6-.2 1-.4 1.7-.4 1.6 0 1.6-2.5 0-2.7zm11.8-.8h-4.6c-1.7.2-1.7 2.7 0 2.7h4.6c1.7 0 1.7-2.7 0-2.7zm6.7 5c1.7.4 2.3-2.3.6-2.5-1-.2-1.9-.6-2.5-1.3-1.2-1-3.1.8-1.9 1.9 1.1 1.1 2.3 1.7 3.8 1.9zm5.1 4c1.5.8 2.7-1.5 1.2-2.3-.8-.4-1.5-.8-2.3-1.5-1.2-.8-2.5 1.5-1.2 2.5.9.4 1.7.9 2.3 1.3zm4.4 4.6c1 1.3 2.9-.6 1.9-1.9-.6-.6-1-1.3-1.7-1.9-1.2-1.3-3.1.6-1.9 1.9.7.6 1.1 1.2 1.7 1.9zm3.9 5.8c.8 1.5 3.1 0 2.3-1.5-.4-.8-1.2-1.3-2.3-1.3-1.6.3-1.6 3 0 2.8zm2.7 4.4c1.7 0 1.7-2.7 0-2.7-1.6.2-1.6 2.7 0 2.7zm14.3 102.7c-29.8 0-60.6-2.5-90.3 1.3-.3 0-.6.2-.7.3-.8-.6-2.3-.3-2.2.9 1.9 15.7 1.5 31.2 1 46.8 0 3.8-3.1 16.3 4 16.3h46.8c14.6 0 29.6.6 43.9-2.5.6-.2 1-.6 1-1.3v-43.5c.1-3.5 3.2-18.3-3.5-18.3zm.9 22.6v35.5c0 8.4-65.2 5-73.5 5-2.1 0-16.9 1-17.1-1.9-.6-6.5.2-13.2.4-19.7.4-12.7.4-25.2-1.1-37.6 23.1-2.9 47-1.3 70.2-1.3h16c7.6.1 5.1 15.8 5.1 20zm-39.2-7.5c-7.7.8-11.4 9.4-10.8 16.3H49.4c-1.7.2-1.7 2.7 0 2.7h2.5v.2c.2 1.7.6 3.3 1 5 .6 1.7 3.1.8 2.5-.6-.4-1.5-.8-2.9-1-4.4v-.2h5.1c-.1.2-.1.5 0 .8.2.8.2 1.5.2 2.3-.2 1.7 2.5 1.7 2.7 0 .2-1 0-1.9-.2-2.9 0-.1-.1-.1-.1-.2h23.2c-.7 6 2.7 13.2 9.4 13.8 9.4 1 13.9-6.1 14.2-14.6 0-8.2-2.7-19.3-12.9-18.2zm2.5 30.1c-7.3 2.3-12.3-5.6-10.6-11.9.1-.5 0-.8-.2-1.1v-.2c-1-5.4 1.2-10.2 5.8-13.2 8.7-5.6 12.3 6.9 12.5 12.8.2 6.2-1 11.7-7.5 13.6zm21.9-33.1c.6 13.8.2 27.6-1.7 41.4-.2 1.7 2.5 1.7 2.7 0 1.7-13.8 2.3-27.6 1.7-41.4 0-1.6-2.7-1.6-2.7 0zm8.6 108.2h-11.6c0-2.3.1-4.5.1-6.8-.2-1.4-2.2-1.4-2.2 0 0 2.3 0 4.5-.1 6.8H67.4c0-2.2 0-4.4.2-6.6.2-1.5-2-1.5-2-.2-.1 2.3-.2 4.5-.2 6.8H52c-.7 0-1 .8-.8 1.4-.1.2-.2.3-.2.6v15.2c-.7.4-.7 1.5 0 1.9v15.1c0 10.9 1.7 23.6-1 34.3-.2.7.3 1.4 1 1.4 12.8.5 25.9 1.2 38.7 1.5 6.4.2 12.8.3 19.4.3 5.4 0 12.2 1.2 17.2-.3 3.2-.8 1-21.5 1-24.8-.2-15.3 0-30.4 2.5-45.3.4-.6-.2-1.3-.8-1.3zm-3.4 66.3c0 6.1-31.1 3.1-35.7 2.9-11.8-.3-23.7-.8-35.5-1.4-1.8 0-1.6-28.8-1.4-48.4 24.3 1.9 48.6 2.6 73 1.8-.2 3.1-.3 6.1-.4 9.2-.4 12 .2 24.1 0 35.9zm1.2-55.5c-.3 2.7-.5 5.4-.7 8.1-24.4.8-48.7.2-73.1-1.8.1-7.4.2-13.1.2-15h12.2c.1 3.2.4 6.4.8 9.7.2 1.4 2.2.8 2-.5-.4-3-.7-6.1-.8-9.2h47.7c0 3.1-.1 6.2-.1 9.3 0 1.4 2 1.4 2.2 0 0-3.1 0-6.2.1-9.3h5.2c6.6.1 4.9 3.8 4.3 8.7zm-57.3 20.7c1.4 0 1.4-2.2 0-2.2h-6.6c-1.4.2-1.4 2.2 0 2.2h6.6zm16.9-1.3c-1.5-.2-3 0-4.6.2-1.4.2-1.4 2.4 0 2.2 1.5-.2 3-.2 4.6-.2 1.3 0 1.3-2 0-2.2zm15.3-.2c-1.4 0-2.5 0-3.7.2-1.5.3-.8 2.4.5 2.2 1-.2 2.2-.2 3.2-.2 1.4.2 1.4-2 0-2.2zm12.9.2H111c-1.4.2-1.4 2.2 0 2.2h3.6c1.4 0 1.4-2.2 0-2.2zm-45.1 14.4c-2-.5-3.9-.8-5.9-.8-1.4-.2-1.4 2 0 2 1.9 0 3.6.3 5.4.8 1.3.4 1.8-1.7.5-2zm14.7-.8c-1.4 0-1.4 2.2 0 2.2h.3c1.4 0 1.4-2.2 0-2.2h-.3zm20.3 1.5c.5 0 1-.5 1-1 0-.7-.5-1-1-1-1.4-.2-2.7 0-4.1.3-1.2.5-.7 2.5.7 2 1.2-.3 2.2-.5 3.4-.3zm16.4-2.2h-3.6c-1.4.2-1.4 2.2 0 2.2h3.6c1.3 0 1.3-2.2 0-2.2zm-51.1 12.4h-3.4c-1.5.2-1.5 2.2 0 2.2h3.4c1.3 0 1.3-2.2 0-2.2zm17.7.6h-4.2c-1.4 0-1.4 2.2 0 2.2h4.2c1.3 0 1.4-2.2 0-2.2zm21.3.7h-7.1c-1.4.2-1.4 2.2 0 2.2h7.1c1.4 0 1.4-2.2 0-2.2zm10.5.2c-.7.2-1.4.3-2 .5-1.4.5-.8 2.5.5 2 .7-.2 1.4-.3 2-.5 1.4-.3.7-2.3-.5-2zm10.8 80.7c-.4-7.4-.7-14.9-1.1-22.2 0-1.6-.7-1.9-2.1-2.3-6-1.8-14.4-.2-20.6-.4-7.9-.2-15.8-.2-23.7-.4-7.9.2-15.8 0-23.7 0-3 0-7.4-1.2-9.7 1.4-.4.4-.3.9 0 1.3.7 15.3.7 30.8.7 46.3 0 3.7-1.4 20.1 5.1 20.5 11.3.8 22.9.5 34.3.3-.4 2.8-.5 5.7-.2 8.6H74.2c-1.4 0-1.4 2.3 0 2.3h36.2c1.4 0 1.4-2.3 0-2.3h-19c-.3-2.9-.3-5.8.1-8.7 3.2-.1 6.5-.1 9.7-.1 4.2 0 25.8 2.6 27.4-3.2 3.8-12.6 2-28 1.5-41.1zm-2.4 36.4c-.9 9.5-27.1 6.3-33 6.3H60.6c-8.4 0-7.8-7.3-8-13.8 25.3.5 50.5.3 75.8-.5-.3 2.7-.5 5.3-.7 8zm.6-10.3c-25.4 1-50.6 1.2-75.9.5-.1-5.3 0-10.5 0-15.8 0-11-.4-22.2-.7-33.3 0-.2-.1-.3-.1-.5 3-1.4 11.8-.2 14.2 0 5.6 0 11.2.2 16.9.2 11.2.2 22.7.4 33.9.5 2.3 0 4.6 0 6.9.2 4.9 0 3.9 6.8 4 9.6.4 5.4.5 10.7.7 16.1.3 7.5.4 15 .1 22.5zm-50.4-35.2c-2.8 2.5-6.7 3.7-9.7 5.8-1.8 1.2-5.1 3.7-5.8 6-.4 1.6 1.6 2.5 2.6 3.2 4.2 2.6 7.9 5.8 11.2 9.3 1.1 1.1 2.5-.5 1.6-1.6-2.1-2.1-4.2-4.2-6.5-6.1-.9-.7-6.7-4.2-5.8-5.4 3.9-4.6 9.7-6 14.1-9.8 1-.9-.6-2.5-1.7-1.4zm17.6-6.1c-4.7 12.6-9.1 25.4-13.4 38.3-.5 1.4 1.8 1.9 2.1.5 4.2-12.8 8.6-25.6 13.4-38.3.5-1.2-1.6-1.9-2.1-.5zm16.2 15.2c-3.7-2.8-7.2-5.6-10.9-8.4-1.2-.7-2.8.9-1.6 1.8 2.6 1.9 5.1 4 7.7 6 1.6 1.2 3.2 2.5 4.6 3.7 2.3 1.8 1.2 1.6-.7 3-4.2 3-7.6 6.8-10.5 11-.9 1.2 1.1 2.3 1.9 1.1 2.5-3.5 5.4-6.7 8.8-9.5.7-.5 4.7-2.6 4.7-4.2 0-2.2-2.6-3.5-4-4.5zm-26.9 37.1h5.8c1.4 0 1.4-2.3 0-2.3h-5.8c-1.4.2-1.4 2.3 0 2.3zm13.3 65.1c-2.8-2.5-7.2-2.3-10.6-2.1-1.3 0-3.2 0-4.6.8-1.9 1-3 2.7-4.9 3.5-.4.2-.5.8-.5 1.3-3.4 4.6-1.5 13.5 2 17.4 4.6 5.2 14.2 5.6 19.2.4 5.3-5.5 5.1-16.3-.6-21.3zm-12.9 22c-5.9-1.3-9.7-13.9-4.9-17.9.4-.2.7-.4 1.3-.9 2.5-1.9 4.6-2.5 7.6-2.7 3.2 0 6.1.2 8.5 2.5 3.4 3.1 2.7 8.9 1.5 12.5-1.8 6.7-7.9 7.8-14 6.5zm43.9 22.7c-5.3-6.7-11.6-12.9-18-18.7-.1-.1-.2-.1-.3-.2 3.2-7.1 2.9-15.9.7-23.9-3.8-13.5-19.9-17.3-31.5-12.9-14.8 5.6-16.9 21.4-12.5 34.8-.3.1-.6.3-.8.7-4 11-14.8 16.4-20.5 26.2-.6 1 .4 1.9 1.3 1.7 1.5-.4 14-4 14-1.9-.2 6.4-.2 12.7 0 19.1 0 1.2 1.5 1.5 2.3.6 7.4-10.7 14.5-21.3 21.9-32 .4.1.8.2 1.2.2l.1.1c10.2 11.8 17.5 26.2 27.7 38.3.6.8 2.1.2 2.1-.8-.8-6.2-1.1-12.1-1.1-18.3-.2-9.4 10.6-4.6 16.9-3.9.8.2 1.5-.4 1.5-1.2.1-3-3.1-5.5-5-7.9zm-65.3 21.2c-.2-6.1-.2-12.4 0-18.5 0-.8-.8-1.3-1.5-1.2-4.2 1.3-8.4 2.4-12.7 3.3 5.8-8.3 14.7-13.7 18.8-23.2 3.7 5.2 9 9.2 14.9 11.1-6.6 9.6-13 19-19.5 28.5zm6.4-41.1c-3.7-9.9-4.4-20.2 3.3-28.7 9.7-10.6 27.5-7.5 34.5 4 5.9 9.6 3.6 26.4-5.9 32.8-10.9 7.4-25.1 1.9-31.9-8.1zm55.6 25.9c-3.8-.6-7.6-1-11.2-1.3-.6 0-1.1.6-1.1 1.2-.3 7.3-.1 14.6.6 21.7-8.3-10.8-14.9-23.1-23.7-33.5 3.5.1 7.1-.7 10.5-2.5 4-2 6.8-4.9 8.8-8.2 5.6 4.9 10.8 10.3 15.7 15.9 2.1 2.5 4 4.8 5.9 7.5-2-.2-3.7-.4-5.5-.8zm-32.1-35.7c-1.2.3-2.3.5-3.4.7-.2-1.2-.3-2.5-.3-3.7v-3.2c-.3-2.5-.4-4.4-.3-4.8l-.5-.7-.9.2c-.1 0-.2.1-.2.1-.8 1.1-4.1 4.3-4.9 5.5-.1.2-.1.5.1.6l1 .5c.2 0 .5 0 .7-.2.5-.6 1.6-1.9 2.6-3.1.2-.3.6-.1.7.2.1.6.1 1.2.2 1.8.1.7.1 1.4 0 2.2v.9c0 1.3.1 2.7.3 4-1 .2-2.2.5-3.8 1.1-.6 1 .3 1.7.3 1.7 1.4-.2 3.5-1 5.1-1.3 1.1-.2 2.7-.3 3.7-.8.1 0 .7-1-.4-1.7zm35 122.4c-1.8-10.5-8.6-20-18.4-24.1-.3-.1-.6-.1-.8 0-19.8-7.6-47.7-.7-57.1 19.8-4.2 9.1-4.2 23.8-1.6 33.2 2.9 10.5 10.9 19 20.4 24.3 18.2 10.2 47.9 3.4 57-16.1 4.7-10.2 2.5-26.4.5-37.1zm-1.8 33.2c-1.8 10.7-13.8 17.1-23 20.1-10.4 3.4-21.9 2.4-31.7-2.4-7.8-3.6-13.7-10.7-17.5-18.3-5.5-10.7-2.5-22.1-.9-33.2 1.5-11.1 16-19.4 25.7-22.7 9.7-3.3 20.2-2.2 29.5 1.3.2.1.5.1.6 0 19.8 9.1 20.2 36.5 17.3 55.2zm-14.2-32.9c-11 7.1-18.3 18-27.3 27.2-2.2 2.2-9.3 5.3-9.3 8.9 0 3.3 5.1 4.9 7.5 5.4 25.5 6.9 47.9-20.9 31.5-42.4-1-.9-2.8-.1-2.4.9zm1.8 28.6c-3.5 5.8-9.5 8.7-15.8 10.3-2.6.5-5.1.7-7.7.9h-2.7c-3.6.4-6-1.6-7.3-6 12.5-9.1 19.8-23.4 33-32 5.5 8.4 5.8 18.1.5 26.8zm-27.9-17.3c6.4-6 12.6-12 18.9-18 .9-.7.4-1.6-.3-1.9.3-.4.3-1 0-1.4-12.8-15.4-40.6 7.8-41.7 22.5-.2 3.6-1.5 19.6 6.4 14.7 6.2-3.7 11.6-10.8 16.7-15.9zm-15.6 12c-4.2-.2-5.8-1.8-5.3-5.1-.7-10 5.3-16.9 12.2-23.2 6.6-6 18.9-11.6 25.7-3.3.1.1.2.2.3.2-6.3 5.9-12.4 11.8-18.7 17.7-3.1 3.1-6.4 6-9.5 9.1-1.6 1.5-3.1 3.2-4.7 4.6z"/><path fill="#333" d="M130 1736.6c-3-16.7-13.5-30.2-29.3-35.8-7.2-2.5-15.3-2.1-22.7-.2-4 1.1-7.9 3-11.4 5.3-5.4 3.7-6 4.3-11.9-.9-1.1-.9-2.6.7-1.6 1.6l.1.1c-.2.2-.4.4-.4.8 0 9.4 0 18.6-.2 28 0 .7.7 1.2 1.4 1.1 9.3-1.6 18.5-3.9 27.4-6.9.7-.2 1.1-1.2.5-1.8-2.6-2.5-10.9-7.1-2.1-10.1 6-2.1 12.1-1.6 17.7 1.2 7.6 3.9 11.6 13.5 14.9 20.9.2.5.9.5 1.2.5 5.1-1.2 10.2-2 15.3-2.5.7.1 1.2-.6 1.1-1.3zm-13.9.9c-3.5.7-6-7.5-7.4-9.8-2.1-3.5-4.7-6.6-7.9-9.2-5.4-4.6-12.1-4.8-18.6-3.7-2.1.4-10.5 2.1-9.5 6.4.5 2.1 2.3 3.2 3.7 4.6 3 2.7 2.1 2.7-1.6 3.7-3 .9-6 1.8-9.1 2.5-5.4 1.2-10.9 4.1-10.7-3.5v-20.2c2 1.6 4 3.1 6.2 4.6.4.4 1.1.2 1.4-.2 17.2-17.7 44.3-13.1 58.2 6 2.8 3.9 4.7 8.7 6.2 13.3 1.6 5.7-7.2 4.6-10.9 5.5zm11.1 8.9c-9.3 1.4-18.6 2.8-28.1 4.3-.9.2-1.1 1.2-.5 1.8 2.3 2.5 8.3 6 3.5 9.4-4.2 3.2-9.5 4.3-14.6 4.4-11.6.5-20.7-9.6-21.4-20.8 0-.7-.7-1.2-1.4-1.1-4 1.4-8.3 3-12.3 4.4-.2.1-.4.2-.5.3-.7-.6-2.1.1-1.8 1.1 4.4 15.6 16.2 27.1 31.8 30.9 8.1 2 16.5.4 24.1-2.5 3.5-1.2 6.5-3.4 9.5-5.5 4.9-3.5 7-.5 11.8 1.8.7.4 1.6 0 1.6-.9 0-8.9-.2-17.7-.2-26.6-.1-.7-.8-1.2-1.5-1zm-8.3 20.9c-.4-.4-1.1-.2-1.4.2-21.1 21.3-55.8 12.2-65-16.4.1 0 .2 0 .3-.1 3-1.1 6.2-2.3 9.1-3.4 2.8-1.1 2.6 3.7 3 5.1 1.2 3.9 4.4 8 7.6 10.3 9.5 6.7 20.6 6.2 30.2.4 2.3-1.4 4-2.8 3.5-5.5-.2-1.1-2.5-3-3-3.5-3.7-3.9 1.9-3 5.3-3.5 4.2-.7 8.3-1.2 12.5-2 6.2-.9 4.9 3 4.9 8 0 4.4 0 8.9.2 13.3 0 3.1-6.3-2.4-7.2-2.9z" opacity=".8"/><path fill="#333" d="M97.1 1820.7c-18.4-.7-37.7 10.3-36.1 31.5 0 1.5 1.7 8.1-4.8 13.5-2.3 1.9-1.7 5.6 1.6 7.5 1.1.6 2.2 1 3.4 1.3-.2 1.3-.1 2.7.5 3.9-1.5 3 .5 5.8 2.3 6.5.8.4.2 2 .3 3.3.3 3.7 4.6 5.5 7.4 5.1 5-.8 10.6-.6 12.5 5.1.4 1.1 1.3 1.4 2.3 1.6 2.3.3 28.3-2.7 29-3.2 1.1-.3 2-1.6 1.3-2.9-6-11.5 6-23.7 8.3-34.7 3.9-18.4-11.2-38.5-28-38.5zm25.9 36.2c-2.7 12.4-14.3 24.4-9.7 37.5-8.7 1.2-26.2 3.1-26.3 3.1-3.1-7.1-10.4-8.4-17.6-7.2-1 .2-3 0-2.9-1.9.6-4.2-2-6.5-3.1-6.8-.4-.1-.2-.3-.2-.3 2-2.2-1-4.3.5-7.2.9-1.8-.3-2.9-2.2-3.2-2.4-.3-3.7-1.2-4.5-1.6-.4-.2-.6-.5-.2-1 7.6-7 6.3-17 6.3-17.1-1.7-21.2 19-29.8 33.3-29 .3 0 .7 0 1 .1 17 1.5 28.5 18.3 25.6 34.6zM87.1 1842c-5.3 3.2-6.5 9.7-4.2 15.2.5 1.3 1.4 2.5 2 3.7 1.9 3.7.6 3.3.6 4.7 0 1.6.4 4.6.6 5.4.1.9.8 1.6 1.9 1.6 13.1 0 13.3.8 14-.7.4-.7.3-1.2.3-5.6 0-2.1-2.1-.3 1.8-5.6 1-1.4 2-2.7 2.6-4.2 1.4-3.3 1.1-7.2-.6-10.3-3.8-6.7-12.8-7.9-19-4.2zm11.3 28.2c-2.8-.2-5.7-.2-8.5-.2-.1-.7-.1-1.3-.2-2 2.9-.1 5.8.1 8.7.6v1.6zm4.7-12.6c-1.4 1.5-3.5 3.7-4.7 7.8-.8-.1-1.7-.1-2.5-.2 0-1-.5-2.9.4-6.5 0-.1 0-.2.1-.3l2.5-2.5c1.7-1.7-.9-4.3-2.6-2.6l-1.2 1.2-1.2-1.8c-1.1-1.5-4.3.3-2.6 2.6.6.8 1.1 1.7 1.5 2.6-.6 2.4-.7 4.7-.4 7.1-1.3 0-2.5-.1-3.8 0-.2-2.6-1.3-4.4-2.2-5.9-.6-1-6.9-10.5 2.1-16 5.1-3.1 11.1-1.3 15 2.5 4.7 6.4.4 11.1-.4 12zm-25-8.4c-1.7 0-3.5-.2-5.2-.3-1.8-.2-1.8 2.7 0 2.8 1.7.2 3.5.3 5.2.3 1.8 0 1.8-2.8 0-2.8zm8.2-11.7c-1-1.5-2-3-3.2-4.4-1.2-1.4-3.2.6-2 2 1 1.2 1.9 2.5 2.8 3.8.9 1.6 3.4.2 2.4-1.4zm18 .7c.8-1.2 1.5-2.4 2.2-3.6.9-1.6-1.5-3-2.5-1.4-.7 1.2-1.5 2.4-2.2 3.6-1 1.5 1.5 2.9 2.5 1.4zm7 12c1.8-.5 3.5-1.2 5.2-2 1.6-.8.2-3.3-1.4-2.5-1.5.7-3 1.3-4.6 1.8-1.7.5-1 3.2.8 2.7z"/><path fill-rule="evenodd" clip-rule="evenodd" fill="#333" d="M133 1983.7c-1.1-4-5-6.5-9.1-6.5-.2-.7-1-1.1-1.7-.6-6.8 4.9-11.8 11.8-17.2 18.1-4.3 5-8.2 10.8-13.6 14.7-.5.3-.6.9-.5 1.4-.3.1-.6.3-.7.7-1.2 4.7-2.4 9.2-4.3 13.8-.4 1 .7 1.7 1.6 1.6 5.3-.9 9.7-4.4 14-7.5.5-.4.6-.9.5-1.4 4.6-4 8.6-8.8 13.1-12.9s8.8-8.4 13.4-12.5c2.3-2 5.5-5.5 4.5-8.9zm-28.7 15.8c5.5-7 11.6-14.7 18.6-20.3.1 0 .2.1.3.1 1.2.2 2.2.5 3.2.9-5.4 7.7-12.8 13.7-18.9 20.9-2.5 2.9-5.2 5.5-7.7 8.3-1.1 1.2-2.8 3-3.2 4.8-.7-1.6-2.2-2.6-4.1-2.7 4.9-1.9 8.7-8.1 11.8-12zm-10.3 22c-.4-.7-.9-1.4-1.6-1.9-.5-.4-.9-.4-1.4-.3.6-2.1 1.1-4.2 1.3-6.4 1.5.3 2.6 1.2 2.7 2.9 0 .6.5 1 1 1 1.2.1 2.1.6 2.6 1.6-1.5 1-3.1 2.1-4.6 3.1zm33.5-31.6c-2.7 2.8-5.8 5.3-8.7 8-5.9 5.7-14.3 11.3-17.9 18.9-.2 0-.4.1-.6.2-.6-1.1-1.6-1.8-2.7-2.1 1.9-1.7 3.4-4.2 5.1-6.1 2.4-2.6 5.1-5.1 7.3-7.9 5.7-7 13.1-12.3 18.2-19.8v-.1c.6.5 1.3 1 1.8 1.8 1.8 2.6-.9 5.5-2.5 7.1zm-1.9 12.2c-.2-.4-.5-.9-1-1-2.3-.4-1.7 2.3-1.6 3.6.3 3.1.6 6.3.5 9.5-.1 5-12.3 1.8-15.2 2.6-1.2.3-1 1.8 0 2.2 2.4.9 5.6.7 8.1.8 2.7.1 5.1.1 7.6-1.1 2.5-1.3 2.6-4.1 2.5-6.6-.3-3.1.1-7-.9-10zm-13-43.7c-3.5-3.3-11.2-2.4-15.6-2.1-6.4.4-13.4 1.1-19.7 2.7-1.1.3-.8 1.8.3 1.8 5.5.5 11.4-.8 16.9-1.2 3.2-.3 6.5-.4 9.7-.3 2.6.1 5 1 7.5 1.2 1.1 0 1.6-1.4.9-2.1zm-.7 11.3c-.7-3.4-13.8-1.4-16-1.3-4.4.2-8.7.4-13.1.8-1.8.2-4.8-.1-6.4 1-.3.2-.3.6 0 .8 1.3.9 3.5.5 5 .5 3.9 0 7.8-.1 11.7-.3l11.3-.3c1.4 0 2.9 0 4.3.1.4 0 2.4.4 1.5-.1.9.6 2-.2 1.7-1.2zm-26 10.3c-2.7.3-6.2.2-8.8 1.2-.4.2-.5.7-.1 1 1.8 1.2 4.8.7 6.9.6 3.5-.2 6.9-.3 10.4.4 1.9.4 2.6-2.3.8-2.8-3-1-6.1-.7-9.2-.4zm-2.1 37.1c-4.8-1.6-10-1.2-14.9-2-3.1-.6-9.8.6-11.2-3.1-.7-1.9-.3-4.3-.3-6.3v-1.2c.9.3 1.7.8 2.5 1.2.8.5 1.6 1.1 2.1 2 .5.8-.5 1.1-.8 1.8-.4.8.1 1.5.9 1.6 1.3.1 2.5-1.2 2.6-2.4.2-1.5-.7-2.8-1.7-3.8-1.4-1.4-3.5-2.6-5.7-3.2-.1-1.6-.1-3.1-.1-4.7v-3.9c.6.2 1.3.5 1.9.8 1.2.6 2.2 1.6 2.9 2.8.6 1 .3 2.1.6 3.2.3 1 1.5 1 2 .3 2.2-2.8-1.5-6.7-3.6-8.2-1.1-.8-2.4-1.3-3.7-1.6 0-2.6.1-5.3.2-7.9.9.3 1.8.6 2.5 1.1.9.5 1.7 1.1 2.2 2 .6 1-.1 2 0 3 .1.8 1 1.5 1.7 1 3.1-2.2.5-6.2-1.7-7.8-1.3-1-3-1.7-4.7-2.1 0-.6 0-1.1.1-1.7.1-2.3.2-4.5.2-6.8.7.3 1.4.6 1.9.9 1 .5 1.8 1.3 2.3 2.2.7 1.1.1 2.1.1 3.3 0 1.1 1.3 1.5 2 .8 2.9-2.5-.1-6.6-2.3-8.2-1.1-.9-2.6-1.6-4.1-2 .1-2.5.1-5 0-7.5 3.1.8 5.6 3.6 5.3 7-.1 1.7 2.6 1.7 2.7 0 .4-5.2-3.6-8.9-8.2-9.6-.1-2.2-.2-4.3-.5-6.5-.1-.6-.1-1.2-.2-1.8 1.4.2 2.7.7 3.8 1.3.9.5 1.8 1.1 2.2 2.1.4 1-.3 1.9-.7 2.8-.5 1.2 1.2 1.8 2 1.2 2.7-2.2 1.4-6-1.1-7.8-1.9-1.3-4.2-2.1-6.5-2.4-.1-1.9-.2-3.8-.2-5.7 2-.4 4.1-.6 6.1-.1 2.9.8 1.6 2.9 1.5 5-.1 1.1 1.5 1.7 2.2.9 2.2-2.6 1.2-6.7-1.8-8.1-2.2-1-4.9-1-7.4-.5 1-1.7 3-1.8 5.9-2.1 15.5-1.3 31.4-.9 47-.9 3.2 0 6.5.1 9.5 1 3.2.9 2 7.8 1.8 10.2-.7 8.8-.8 16.9.8 25.8.3 1.9 3.2 1.1 2.9-.8-1.1-5.9-1.8-11.7-1.4-17.7.3-4.3 1-8.5.9-12.9-.2-7.8-5.9-8.3-12.5-8.6-9.5-.3-19.1.1-28.6.3-8.2.2-17.1-.3-25.2 1.3-3 .6-4.2 2.7-4.6 5.3-2.5.8-5.7 2.2-6.5 4.8-.7 2.3 1.2 3.6 3.3 4.2-3.1 2.7-2.5 8.9.7 10.9-3.8 2.2-3.2 6.7-.5 9-3 1.3-4.7 4.3-4.1 7.5.3 1.9 1.6 3.4 3.3 4.1-3.1 1.2-5.1 4.4-3.9 7.7.6 1.6 2 3.1 3.6 3.8-.2.1-.5.2-.7.3-2.9 1.6-3.7 4.8-2.4 7.7.6 1.4 1.7 2.4 3 3.1-2.4 1.4-4 4-3.5 6.8.7 4 5.3 5.6 8.9 5 .2.4.5.8.9 1.2 2.5 2.4 6.3 2.4 9.6 2.6 6 .4 12 1.4 18 1.6 1.8-.2 2-2.2.7-2.6zm-33.3-71.5c-.7-.4-.8-.8-.7-1.1.6-1.2 2.3-2 3.8-2.5 0 1.7.2 3.4.4 4.8-.3 0-.6.1-.8.1-1-.3-1.9-.7-2.7-1.3zm3.7 4c.2 2.8.4 5.6.5 8.4-.2 0-.4.1-.6.1-3.6-1.5-4.1-7.8.1-8.5zm-4.8 49c-1.5-2.1-.4-4 1.6-5.2 1-.6 2.2-.8 3.3-.9v8.5c-.5 0-1 0-1.5.1-1.3-.5-2.5-1.3-3.4-2.5zm-.5 10.2c-.8-2.6 2.2-4.8 4.4-5h1c-.1 2.6-.5 6.1.2 8.7-2.4-.3-4.9-1.3-5.6-3.7zm5.5-18.8c-.5 0-1 .1-1.4.2-1.8-.6-3.4-1.6-4.2-3.5-1.2-2.9 1.7-4.6 4.2-4.9h1.6c-.1 2.7-.2 5.5-.2 8.2zm.2-10.9c-.2-.1-.3-.2-.4-.2-2.2-.4-4-1.5-4.7-3.7-.8-2.4 1.2-4.4 3.4-4.9.6-.1 1.2-.2 1.9-.1 0 3-.1 5.9-.2 8.9zm-.5-11.7c-1.1-.6-2-1.2-2.7-2.5-.8-1.6.3-3 1.6-3.8.6-.3 1.1-.6 1.7-.7.1 2.3.1 4.6.1 6.9-.2.1-.4.1-.7.1zm58.4-20.3c-.6-.4-1-.5-1.5-.5-6.3-1.6-13.1-1.2-19.5-1.3-4.1-.1-9.6-.1-13.5 1.5-.9.3-1.1 1.8 0 2 4.1.8 8.7-.3 12.8-.3 6.6-.1 14.1-.3 20.5 1.5 1.8.5 2.8-2 1.2-2.9z"/></svg>