<?xml version="1.0" encoding="utf-8"?>
<!-- Generator: Adobe Illustrator 27.0.0, SVG Export Plug-In . SVG Version: 6.00 Build 0)  -->
<svg version="1.1" id="Слой_1" xmlns="http://www.w3.org/2000/svg" xmlns:xlink="http://www.w3.org/1999/xlink" x="0px" y="0px"
	 width="360px" height="95px" viewBox="0 0 360 95" style="enable-background:new 0 0 360 95;" xml:space="preserve">
<style type="text/css">
	.st0{fill:#F26D25;}
	.st1{fill:#FFFFFF;}
	.st2{fill:#3C4347;}
	.st3{fill:#70AC43;}
	.st4{fill:#037DAD;}
	.st5{fill:#72AF44;}
	.st6{fill:#1AA5DE;}
	.st7{fill:#4CBDEC;}
</style>
<g>
	<polygon class="st0" points="337.3,51.4 121.9,51.4 144.1,16.4 359.4,16.4 	"/>
	<g>
		<path class="st1" d="M153,32.3h-1.8v-2.6h1.8v-1c0-2.5,1.2-3.7,4.2-3.7c0.6,0,1.4,0.1,1.8,0.2v2.3c-0.3,0-0.6-0.1-1-0.1
			c-1.2,0-1.7,0.5-1.7,1.4v0.9h2.6v2.6h-2.5v10.3H153V32.3z"/>
		<path class="st1" d="M161.2,36.1c0-4.2,2.5-6.7,6.4-6.7c3.9,0,6.4,2.5,6.4,6.7c0,4.2-2.5,6.7-6.4,6.7
			C163.7,42.8,161.2,40.3,161.2,36.1z M170.4,36.1c0-2.6-1.1-4-2.8-4c-1.7,0-2.8,1.5-2.8,4c0,2.6,1.1,4,2.8,4
			C169.3,40.2,170.4,38.7,170.4,36.1z"/>
		<path class="st1" d="M177,29.7h3.4V32h0.1c0.5-1.6,1.6-2.5,3.1-2.5c0.4,0,0.8,0.1,1,0.1v3.1c-0.3-0.1-0.8-0.2-1.3-0.2
			c-1.7,0-2.7,1.1-2.7,2.9v7.2H177V29.7z"/>
		<path class="st1" d="M192.9,38.9c0-2.3,1.8-3.7,5-3.9l3.2-0.2v-0.9c0-1.2-0.8-1.9-2.2-1.9c-1.3,0-2.1,0.6-2.3,1.6h-3.2
			c0.1-2.5,2.3-4.2,5.7-4.2c3.3,0,5.5,1.7,5.5,4.3v8.9h-3.4v-2h-0.1c-0.7,1.4-2.3,2.2-3.9,2.2C194.7,42.8,192.9,41.2,192.9,38.9z
			 M201.1,37.8v-0.9l-2.7,0.2c-1.3,0.1-2.1,0.7-2.1,1.6c0,1,0.8,1.6,2,1.6C199.9,40.2,201.1,39.2,201.1,37.8z"/>
		<path class="st1" d="M207.6,36.1c0-4.1,2-6.6,5.3-6.6c1.9,0,3.3,1,3.9,2.4h0.1v-6.7h3.5v17.4h-3.5v-2.2h-0.1
			c-0.6,1.4-2.1,2.4-4,2.4C209.6,42.8,207.6,40.2,207.6,36.1z M211.2,36.1c0,2.4,1.1,3.8,2.9,3.8c1.7,0,2.9-1.5,2.9-3.8
			c0-2.3-1.1-3.8-2.9-3.8C212.3,32.3,211.2,33.8,211.2,36.1z"/>
		<path class="st1" d="M231.4,42.6h-4l-4.5-12.9h3.8l2.7,9.8h0.1l2.7-9.8h3.7L231.4,42.6z"/>
		<path class="st1" d="M249.6,38.6c-0.4,2.5-2.7,4.2-5.9,4.2c-4,0-6.4-2.5-6.4-6.7c0-4.1,2.4-6.8,6.2-6.8c3.8,0,6.1,2.5,6.1,6.5v1.1
			h-8.9v0.2c0,1.8,1.2,3.1,3,3.1c1.3,0,2.3-0.6,2.6-1.6H249.6z M240.9,34.8h5.5c-0.1-1.6-1.1-2.8-2.7-2.8
			C242.1,32,241,33.2,240.9,34.8z"/>
		<path class="st1" d="M252.8,29.7h3.4V32h0.1c0.5-1.6,1.6-2.5,3.1-2.5c0.4,0,0.8,0.1,1,0.1v3.1c-0.3-0.1-0.8-0.2-1.3-0.2
			c-1.7,0-2.7,1.1-2.7,2.9v7.2h-3.5V29.7z"/>
		<path class="st1" d="M267.4,26.7v3h2.4v2.6h-2.4v6.2c0,1,0.5,1.5,1.5,1.5c0.3,0,0.6,0,0.9-0.1v2.6c-0.4,0.1-1,0.1-1.7,0.1
			c-3,0-4.2-1-4.2-3.5v-6.8h-1.8v-2.6h1.8v-3H267.4z"/>
		<path class="st1" d="M272.9,26.4c0-1,0.8-1.8,1.9-1.8c1.1,0,1.9,0.8,1.9,1.8c0,1-0.8,1.8-1.9,1.8
			C273.7,28.2,272.9,27.4,272.9,26.4z M273,29.7h3.5v12.9H273V29.7z"/>
		<path class="st1" d="M285.3,29.4c3.2,0,5.3,1.6,5.4,4.1h-3.2c-0.1-1-0.9-1.7-2.2-1.7c-1.2,0-2,0.6-2,1.4c0,0.6,0.6,1.1,1.7,1.3
			l2.5,0.5c2.6,0.6,3.6,1.6,3.6,3.5c0,2.5-2.3,4.2-5.7,4.2c-3.4,0-5.6-1.7-5.8-4.2h3.4c0.2,1.1,1,1.7,2.4,1.7c1.3,0,2.1-0.5,2.1-1.4
			c0-0.6-0.4-1-1.6-1.3l-2.4-0.5c-2.4-0.6-3.7-1.8-3.7-3.7C279.9,31,282,29.4,285.3,29.4z"/>
		<path class="st1" d="M305.8,38.6c-0.4,2.5-2.7,4.2-5.9,4.2c-4,0-6.4-2.5-6.4-6.7c0-4.1,2.4-6.8,6.2-6.8c3.8,0,6.1,2.5,6.1,6.5v1.1
			H297v0.2c0,1.8,1.2,3.1,3,3.1c1.3,0,2.3-0.6,2.6-1.6H305.8z M297.1,34.8h5.5c-0.1-1.6-1.1-2.8-2.7-2.8
			C298.3,32,297.2,33.2,297.1,34.8z"/>
		<path class="st1" d="M309,29.7h3.4V32h0.1c0.5-1.6,1.6-2.5,3.1-2.5c0.4,0,0.8,0.1,1,0.1v3.1c-0.3-0.1-0.8-0.2-1.3-0.2
			c-1.7,0-2.7,1.1-2.7,2.9v7.2H309V29.7z"/>
		<path class="st1" d="M324.4,29.4c3.2,0,5.3,1.6,5.4,4.1h-3.2c-0.1-1-0.9-1.7-2.2-1.7c-1.2,0-2,0.6-2,1.4c0,0.6,0.6,1.1,1.7,1.3
			l2.5,0.5c2.6,0.6,3.6,1.6,3.6,3.5c0,2.5-2.3,4.2-5.7,4.2c-3.4,0-5.6-1.7-5.8-4.2h3.4c0.2,1.1,1,1.7,2.4,1.7c1.3,0,2.1-0.5,2.1-1.4
			c0-0.6-0.4-1-1.6-1.3l-2.4-0.5c-2.4-0.6-3.7-1.8-3.7-3.7C318.9,31,321.1,29.4,324.4,29.4z"/>
	</g>
</g>
<path class="st2" d="M336,86.6c-0.7,1.4-1.8,2.7-3,3.6c-1.3,0.9-2.7,1.6-4.3,2.1s-3.2,0.7-4.8,0.7c-1.6,0-3.2-0.2-4.8-0.7
	c-1.6-0.5-3-1.3-4.3-2.1c-1.3-0.9-2.3-2.1-3-3.6c-0.7-1.4-1.3-3.2-1.3-5.2V64.3c0-0.5,0.2-1.1,0.7-1.8c0.5-0.5,1.3-0.9,2.5-0.9
	c1.1,0,2,0.2,2.5,0.7c0.5,0.5,0.7,1.1,0.7,1.8v14.1c0,1.4,0.2,2.7,0.4,3.8c0.2,1.1,0.5,2,1.1,2.9c0.5,0.7,1.3,1.4,2.1,1.8
	c0.9,0.4,2.1,0.7,3.6,0.7c1.4,0,2.5-0.2,3.4-0.5c0.9-0.4,1.6-1.1,2.1-1.8c0.5-0.7,0.9-1.6,1.1-2.9c0.2-1.1,0.4-2.3,0.4-3.8V64.3
	c0-0.5,0.2-1.1,0.7-1.8c0.5-0.5,1.3-0.9,2.5-0.9c1.1,0,2,0.2,2.5,0.7c0.5,0.5,0.7,1.1,0.7,1.8v17.2C337.1,83.4,336.8,85.2,336,86.6z
	 M298,87.7c-1.3,1.4-2.7,2.7-4.5,3.4c-1.8,0.9-3.9,1.3-6.3,1.3h-9.1c-1.1,0-1.8-0.2-2.1-0.5c-0.4-0.4-0.5-0.9-0.5-1.6V64.5
	c0-0.7,0.2-1.3,0.4-1.6c0.4-0.4,1.1-0.5,2.1-0.5h8.9c2.5,0,4.6,0.4,6.4,1.3c1.8,0.9,3.4,2,4.5,3.6c1.3,1.4,2,3.2,2.7,5.4
	c1.1,3.9,1.3,5.4,0,9.8C299.9,84.5,299.1,86.3,298,87.7z M294.8,74.1c-0.4-1.4-0.7-2.7-1.4-3.8c-0.7-1.1-1.6-1.8-2.9-2.3
	c-1.1-0.5-2.7-0.7-4.5-0.7h-4.3v20h5.5c2.7,0,4.6-1.1,5.9-3C296.6,79.3,294.6,73.6,294.8,74.1z M266.5,92c-0.4,0.4-0.5,0.5-1.1,0.7
	c-0.4,0.2-0.9,0.2-1.4,0.2c-1.1,0-1.8-0.2-2.1-0.7c-0.5-0.5-0.9-1.1-1.1-1.6l-2.3-5.9h-9.8l-2.1,5.5c-0.4,0.7-0.7,1.4-1.3,1.8
	c-0.5,0.5-1.3,0.7-2.3,0.7c-1.1,0-1.8-0.4-2.3-0.9c-0.5-0.5-0.7-1.4-0.2-2.9l10-25.4c0.2-0.5,0.5-0.9,1.1-1.4
	c0.5-0.4,1.3-0.5,2.1-0.5c0.9,0,1.6,0.2,2.1,0.5c0.5,0.4,0.9,0.9,1.1,1.4l10,25.4c0.2,0.5,0.2,1.1,0.2,1.6
	C266.9,91.3,266.7,91.6,266.5,92z M253.7,71.1l-3.8,8.2h7.5L253.7,71.1z M232,91.6c-0.7,0.7-1.4,1.3-2.1,1.3c-0.7,0-1.4-0.4-2.1-1.1
	l-12.5-9.3v8.2c0,0.5-0.2,1.1-0.7,1.4c-0.5,0.4-1.3,0.7-2.5,0.7c-1.1,0-2-0.2-2.5-0.7c-0.5-0.4-0.7-0.9-0.7-1.4V64.5
	c0-0.5,0.2-1.1,0.7-1.8c0.5-0.5,1.3-0.9,2.5-0.9c1.1,0,2,0.2,2.3,0.7c0.5,0.5,0.7,1.1,0.7,1.8V74L226.3,63c0.9-0.9,1.6-1.3,2.3-1.4
	c0.7-0.2,1.4,0.4,2.3,1.3c0.7,0.7,0.9,1.4,0.7,2.1c-0.2,0.7-0.7,1.4-1.4,2l-12,11.1l12.5,8.4c0.5,0.5,0.9,0.9,1.3,1.4
	c0.4,0.4,0.5,0.7,0.7,1.3c0.2,0.4,0.2,0.7,0,1.3C232.8,90.7,232.6,91.1,232,91.6z M199.5,89.1c-0.5,0.7-1.3,1.3-2.1,2
	c-0.9,0.7-2.1,1.3-3.4,1.6c-1.3,0.5-2.9,0.7-4.5,0.7c-2.5,0-4.6-0.4-6.8-1.3c-2.1-0.9-3.9-2-5.4-3.6c-1.4-1.6-2.7-3.4-3.6-5.7
	c-3.4-8.8,2.3-15.7,3.4-16.8c1.4-1.6,3-2.7,5-3.6c2-0.9,3.9-1.3,6.3-1.3c1.6,0,3,0.2,4.3,0.5c1.3,0.4,2.5,0.9,3.4,1.4
	c0.9,0.5,1.8,1.3,2.3,2s0.9,1.3,0.9,1.8c0,0.4,0,0.7,0,1.1c-0.2,0.4-0.2,0.5-0.2,0.7c-0.2,0.2-0.4,0.4-0.5,0.5
	c-0.2,0.2-0.5,0.4-0.9,0.5c-0.5,0.2-1.3,0.2-1.8,0c-0.5-0.4-1.1-0.7-1.8-1.1c-0.7-0.4-1.4-0.9-2.3-1.3c-0.9-0.4-2-0.5-3.4-0.5
	s-2.9,0.4-4.1,1.1s-2.1,1.6-2.9,2.7c-0.7,1.1-1.4,2.5-1.8,3.9c-1.1,3.8,0.5,7.3,2.1,9.3c0.9,1.3,2,2.1,3.4,2.9
	c1.3,0.7,2.9,1.1,4.6,1.1c0.9,0,1.6-0.2,2.3-0.4c0.7-0.2,1.3-0.4,1.8-0.7c0.5-0.4,0.9-0.5,1.4-0.9c0.4-0.4,0.9-0.5,1.3-0.9
	c0.4-0.4,0.7-0.5,1.3-0.5c0.4,0,0.9,0,1.1,0.2c0.7,0.4,1.3,0.7,1.4,1.3c0.2,0.5,0.4,1.1,0.4,1.6C200.2,87.9,199.9,88.4,199.5,89.1z
	 M160.2,92.9c-1.1,0-2-0.2-2.3-0.7c-0.5-0.5-0.7-1.3-0.7-2.3V65c0-2.1,1.1-3,3-3c1.1,0,1.8,0.2,2.3,0.7c0.5,0.5,0.9,1.3,0.9,2.3
	v24.8c0,1.1-0.2,1.8-0.7,2.3C162.2,92.5,161.3,92.9,160.2,92.9z M146.3,92.4h-12.3c-1.1,0-2-0.4-2.5-1.1c-0.5-0.7-0.9-1.4-0.9-2.5
	V64.3c0-0.7,0.4-1.4,0.9-1.8s1.4-0.7,2.1-0.7c0.9,0,1.6,0.2,2.3,0.7c0.5,0.4,0.9,1.1,0.9,1.8v22.3h9.5c0.7,0,1.3,0.2,1.8,0.7
	c0.5,0.4,0.7,1.1,0.7,2.1s-0.4,1.8-0.9,2.1C147.5,92.2,147,92.4,146.3,92.4z M121.1,89.1c-0.5,0.7-1.3,1.3-2.1,2
	c-0.9,0.7-2.1,1.3-3.4,1.6c-1.3,0.5-2.9,0.7-4.5,0.7c-2.5,0-4.6-0.4-6.8-1.3c-2.1-0.9-3.9-2-5.4-3.6c-1.4-1.6-2.7-3.4-3.6-5.7
	c-3.4-8.8,2.3-15.7,3.4-16.8c1.4-1.6,3-2.7,5-3.6c2-0.9,3.9-1.3,6.3-1.3c1.6,0,3,0.2,4.3,0.5c1.3,0.4,2.5,0.9,3.4,1.4
	c0.9,0.5,1.8,1.3,2.3,2s0.9,1.3,0.9,1.8c0,0.4,0,0.7,0,1.1c-0.2,0.4-0.2,0.5-0.2,0.7c-0.2,0.2-0.4,0.4-0.5,0.5
	c-0.2,0.2-0.5,0.4-0.9,0.5c-0.5,0.2-1.3,0.2-1.8,0c-0.5-0.4-1.1-0.7-1.8-1.1c-0.7-0.4-1.4-0.9-2.3-1.3c-0.9-0.4-2-0.5-3.4-0.5
	c-1.4,0-2.9,0.4-4.1,1.1s-2.1,1.6-2.9,2.7c-0.7,1.1-1.4,2.5-1.8,3.9c-1.4,3.8,0.2,7.3,1.8,9.3c0.9,1.3,2,2.1,3.4,2.9
	c1.3,0.7,2.9,1.1,4.6,1.1c0.9,0,1.6-0.2,2.3-0.4c0.7-0.2,1.3-0.4,1.8-0.7c0.5-0.4,0.9-0.5,1.4-0.9c0.4-0.4,0.9-0.5,1.3-0.9
	c0.4-0.4,0.7-0.5,1.3-0.5c0.4,0,0.7,0,1.1,0.2c0.7,0.4,1.3,0.7,1.4,1.3c0.2,0.5,0.4,1.1,0.4,1.6C121.8,87.9,121.4,88.4,121.1,89.1z"
	/>
<g>
	<polygon class="st3" points="116.4,29.2 89.8,27.1 88.4,44.2 	"/>
	<polygon class="st0" points="73,44.2 80.7,36.6 44.3,0.5 44.3,44.2 55,44.2 	"/>
	<polygon class="st4" points="89.8,27.1 89.8,27.1 80.7,36.6 73,44.2 88.1,44.2 88.4,44.2 88.4,44.2 89.8,27.1 90.1,26.8 	"/>
	<polygon class="st5" points="23.9,94.5 44.3,88.3 36.6,80.6 	"/>
	<polygon class="st6" points="88.1,44.2 73,44.2 55,44.2 50.8,46.6 20.4,64.1 0.6,44.2 36.6,80.6 44.3,88.3 88.4,44.2 	"/>
	<polygon class="st7" points="44.3,44.2 0.6,44.2 20.4,64.1 50.8,46.6 55,44.2 	"/>
</g>
</svg>
