<svg width="205" height="163" viewBox="0 0 205 163" xmlns="http://www.w3.org/2000/svg"><title>browser</title><g fill="none" fill-rule="evenodd"><path d="M195.1 162.7H9.9c-5.1 0-9.2-4.1-9.2-9.2V9.6C.7 4.5 4.8.4 9.9.4h185.2c5.1 0 9.2 4.1 9.2 9.2v143.9c0 5.1-4.1 9.2-9.2 9.2z" fill="#FFF"/><path d="M204.3 28V9.6c0-5.1-4.1-9.2-9.2-9.2H9.9C4.8.4.7 4.5.7 9.6V28h203.6z" fill="#CDF"/><circle fill="#578FFF" cx="14.9" cy="14.5" r="5"/><circle fill="#578FFF" cx="29.9" cy="14.5" r="5"/><circle fill="#578FFF" cx="44.9" cy="14.5" r="5"/><path d="M187 9.5H72.7c-2.8 0-5 2.2-5 5s2.2 5 5 5H187c2.8 0 5-2.2 5-5s-2.2-5-5-5z" fill="#FFF" opacity=".5"/></g></svg>