<svg width="204" height="163" viewBox="0 0 204 163" xmlns="http://www.w3.org/2000/svg"><title>browser 2</title><g fill="none" fill-rule="evenodd"><path d="M194.8 162.4H9.6c-5.1 0-9.2-4.1-9.2-9.2V9.3C.4 4.2 4.5.1 9.6.1h185.2c5.1 0 9.2 4.1 9.2 9.2v143.9c0 5.1-4.1 9.2-9.2 9.2z" fill="#FFF"/><path d="M204 27.7V9.3c0-5.1-4.1-9.2-9.2-9.2H9.6C4.5.1.4 4.2.4 9.3v18.4H204z" fill="#F66"/><g transform="translate(9 9)"><circle fill="#161F3C" opacity=".4" cx="5.6" cy="5.2" r="5"/><circle fill="#161F3C" opacity=".4" cx="20.6" cy="5.2" r="5"/><circle fill="#161F3C" opacity=".4" cx="35.6" cy="5.2" r="5"/><path d="M177.7.2H63.4c-2.8 0-5 2.2-5 5s2.2 5 5 5h114.3c2.8 0 5-2.2 5-5s-2.2-5-5-5z" fill="#FFF" opacity=".25"/></g></g></svg>