<svg width="16" height="16" viewBox="0 0 16 16" xmlns="http://www.w3.org/2000/svg"><title>Group 3</title><g fill="#578FFF" fill-rule="evenodd" opacity=".65"><path d="M8 15.2C4.1 15.2.8 12 .8 8 .8 4.1 4 .8 8 .8S15.2 4 15.2 8s-3.3 7.2-7.2 7.2zM8 2.6C5 2.6 2.6 5 2.6 8c0 3 2.4 5.4 5.4 5.4 3 0 5.4-2.4 5.4-5.4 0-3-2.4-5.4-5.4-5.4z"/><path d="M8 15.2C4.1 15.2.8 12 .8 8 .8 4.1 4 .8 8 .8S15.2 4 15.2 8s-3.3 7.2-7.2 7.2zM8 2.6C5 2.6 2.6 5 2.6 8c0 3 2.4 5.4 5.4 5.4 3 0 5.4-2.4 5.4-5.4 0-3-2.4-5.4-5.4-5.4z"/><path d="M8 15.2C4.1 15.2.8 12 .8 8 .8 4.1 4 .8 8 .8S15.2 4 15.2 8s-3.3 7.2-7.2 7.2zM8 2.6C5 2.6 2.6 5 2.6 8c0 3 2.4 5.4 5.4 5.4 3 0 5.4-2.4 5.4-5.4 0-3-2.4-5.4-5.4-5.4z"/></g></svg>