<svg width="24" height="24" viewBox="0 0 24 24" xmlns="http://www.w3.org/2000/svg"><title>Group</title><g fill="#578FFF" fill-rule="evenodd" opacity=".45"><path d="M12 23.4C5.7 23.4.7 18.3.7 12.1.7 5.8 5.8.8 12 .8c6.3 0 11.3 5.1 11.3 11.3 0 6.2-5.1 11.3-11.3 11.3zm0-21c-5.3 0-9.6 4.3-9.6 9.6s4.3 9.6 9.6 9.6 9.6-4.3 9.6-9.6-4.3-9.6-9.6-9.6z"/><path d="M12 23.4C5.7 23.4.7 18.3.7 12.1.7 5.8 5.8.8 12 .8c6.3 0 11.3 5.1 11.3 11.3 0 6.2-5.1 11.3-11.3 11.3zm0-21c-5.3 0-9.6 4.3-9.6 9.6s4.3 9.6 9.6 9.6 9.6-4.3 9.6-9.6-4.3-9.6-9.6-9.6z"/><path d="M12 23.4C5.7 23.4.7 18.3.7 12.1.7 5.8 5.8.8 12 .8c6.3 0 11.3 5.1 11.3 11.3 0 6.2-5.1 11.3-11.3 11.3zm0-21c-5.3 0-9.6 4.3-9.6 9.6s4.3 9.6 9.6 9.6 9.6-4.3 9.6-9.6-4.3-9.6-9.6-9.6z"/></g></svg>