<svg width="32" height="32" viewBox="0 0 32 32" xmlns="http://www.w3.org/2000/svg"><title>Group 2</title><g fill="#578FFF" fill-rule="evenodd" opacity=".3"><path d="M16 31.5C7.5 31.5.6 24.6.6 16.1S7.5.7 16 .7s15.4 6.9 15.4 15.4c0 8.4-6.9 15.4-15.4 15.4zm0-29.2C8.4 2.3 2.3 8.4 2.3 16S8.4 29.7 16 29.7 29.7 23.6 29.7 16c0-7.5-6.2-13.7-13.7-13.7z"/><path d="M16 31.5C7.5 31.5.6 24.6.6 16.1S7.5.7 16 .7s15.4 6.9 15.4 15.4c0 8.4-6.9 15.4-15.4 15.4zm0-29.2C8.4 2.3 2.3 8.4 2.3 16S8.4 29.7 16 29.7 29.7 23.6 29.7 16c0-7.5-6.2-13.7-13.7-13.7z"/><path d="M16 31.5C7.5 31.5.6 24.6.6 16.1S7.5.7 16 .7s15.4 6.9 15.4 15.4c0 8.4-6.9 15.4-15.4 15.4zm0-29.2C8.4 2.3 2.3 8.4 2.3 16S8.4 29.7 16 29.7 29.7 23.6 29.7 16c0-7.5-6.2-13.7-13.7-13.7z"/></g></svg>