<svg width="170" height="371" viewBox="0 0 170 371" xmlns="http://www.w3.org/2000/svg"><title>full_browser</title><g fill="none" fill-rule="evenodd"><path d="M17.6 2.9H5.9c-.6 0-1.2-.5-1.2-1.2 0-.6.5-1.2 1.2-1.2h11.7c.6 0 1.2.5 1.2 1.2s-.6 1.2-1.2 1.2zm0 5.8H5.9c-.6 0-1.2-.5-1.2-1.2 0-.6.5-1.2 1.2-1.2h11.7c.6 0 1.2.5 1.2 1.2 0 .6-.6 1.2-1.2 1.2z" fill="#CDF"/><path d="M169.7 370.7v-72.1c0-2-1.6-3.6-3.6-3.6H3.7c-2 0-3.6 1.6-3.6 3.6v72.1h169.6z" fill="#CDF" opacity=".5"/><path d="M34.3 363.7H22.6c-.6 0-1.2-.5-1.2-1.2 0-.6.5-1.2 1.2-1.2h11.7c.6 0 1.2.5 1.2 1.2 0 .6-.5 1.2-1.2 1.2zm22.6 0H45.2c-.6 0-1.2-.5-1.2-1.2 0-.6.5-1.2 1.2-1.2h11.7c.6 0 1.2.5 1.2 1.2 0 .6-.5 1.2-1.2 1.2zm22.6 0H67.8c-.6 0-1.2-.5-1.2-1.2 0-.6.5-1.2 1.2-1.2h11.7c.6 0 1.2.5 1.2 1.2 0 .6-.6 1.2-1.2 1.2zm22.6 0H90.4c-.6 0-1.2-.5-1.2-1.2 0-.6.5-1.2 1.2-1.2h11.7c.6 0 1.2.5 1.2 1.2 0 .6-.6 1.2-1.2 1.2zm22.6 0H113c-.6 0-1.2-.5-1.2-1.2 0-.6.5-1.2 1.2-1.2h11.7c.6 0 1.2.5 1.2 1.2-.1.6-.6 1.2-1.2 1.2zm22.6 0h-11.7c-.6 0-1.2-.5-1.2-1.2 0-.6.5-1.2 1.2-1.2h11.7c.6 0 1.2.5 1.2 1.2-.1.6-.6 1.2-1.2 1.2zM58.8 8.7H47.1c-.6 0-1.2-.5-1.2-1.2 0-.6.5-1.2 1.2-1.2h11.7c.6 0 1.2.5 1.2 1.2 0 .6-.5 1.2-1.2 1.2zm21.3 0H68.4c-.6 0-1.2-.5-1.2-1.2 0-.6.5-1.2 1.2-1.2h11.7c.6 0 1.2.5 1.2 1.2-.1.6-.6 1.2-1.2 1.2zm21.2 0H89.6c-.6 0-1.2-.5-1.2-1.2 0-.6.5-1.2 1.2-1.2h11.7c.6 0 1.2.5 1.2 1.2 0 .6-.5 1.2-1.2 1.2zm21.3 0h-11.7c-.6 0-1.2-.5-1.2-1.2 0-.6.5-1.2 1.2-1.2h11.7c.6 0 1.2.5 1.2 1.2-.1.6-.6 1.2-1.2 1.2zm-105 5.7H5.9c-.6 0-1.2-.5-1.2-1.2 0-.6.5-1.2 1.2-1.2h11.7c.6 0 1.2.5 1.2 1.2s-.6 1.2-1.2 1.2z" fill="#CDF"/><path d="M.1 23.1v39.1c0 2 1.6 3.6 3.6 3.6h162.5c2 0 3.6-1.6 3.6-3.6V23.1c0-2-1.6-3.6-3.6-3.6H3.7c-2 0-3.6 1.6-3.6 3.6zM0 138.3v.1c0 2 1.6 3.6 3.6 3.6h162.5c2 0 3.6-1.6 3.6-3.6v-.1c0-2-1.6-3.6-3.6-3.6H3.6c-2 0-3.6 1.6-3.6 3.6z" fill="#CDF" opacity=".5"/><path d="M105.8 78.7h-44c-1.1 0-2-.9-2-2s.9-2 2-2h44c1.1 0 2 .9 2 2s-.9 2-2 2z" fill="#578FFF" opacity=".4"/><path d="M113.2 31.2h-42c-1.1 0-2-.9-2-2s.9-2 2-2h42c1.1 0 2 .9 2 2s-.9 2-2 2z" fill="#CDF"/><path d="M92.9 52.6H72.6c-1.7 0-3 1.3-3 3s1.3 3 3 3h20.3c1.7 0 3-1.3 3-3 0-1.6-1.3-3-3-3z" fill="#578FFF" opacity=".3"/><path d="M146.7 38.5h-76c-.6 0-1.2-.5-1.2-1.2 0-.6.5-1.2 1.2-1.2h76c.6 0 1.2.5 1.2 1.2-.1.7-.6 1.2-1.2 1.2zm0 7.1h-76c-.6 0-1.2-.5-1.2-1.2 0-.6.5-1.2 1.2-1.2h76c.6 0 1.2.5 1.2 1.2-.1.7-.6 1.2-1.2 1.2z" fill="#FFF"/><path d="M39 117.7h-8c-.6 0-1 .5-1 1v1.3c0 .6.5 1 1 1h8.1c.6 0 1-.5 1-1v-1.3c0-.5-.5-1-1.1-1z" fill="#578FFF" opacity=".65"/><path d="M43 114.9H27c-.5 0-.9-.4-.9-.9s.4-.9.9-.9h16c.5 0 .9.4.9.9s-.4.9-.9.9z" fill="#CDF"/><path d="M35 108.5c-6.3 0-11.3-5.1-11.3-11.3 0-6.2 5.1-11.3 11.3-11.3 6.2 0 11.3 5.1 11.3 11.3 0 6.2-5 11.3-11.3 11.3z" fill="#CDF" opacity=".75"/><path d="M87.9 117.7h-8.1c-.6 0-1 .5-1 1v1.3c0 .6.5 1 1 1h8.1c.6 0 1-.5 1-1v-1.3c0-.5-.5-1-1-1z" fill="#578FFF" opacity=".65"/><path d="M91.8 114.9h-16c-.5 0-.9-.4-.9-.9s.4-.9.9-.9h16c.5 0 .9.4.9.9s-.4.9-.9.9z" fill="#CDF"/><path d="M83.8 108.5c-6.3 0-11.3-5.1-11.3-11.3 0-6.2 5.1-11.3 11.3-11.3 6.2 0 11.3 5.1 11.3 11.3 0 6.2-5 11.3-11.3 11.3z" fill="#CDF" opacity=".75"/><path d="M136.7 117.7h-8.1c-.6 0-1 .5-1 1v1.3c0 .6.5 1 1 1h8.1c.6 0 1-.5 1-1v-1.3c0-.5-.4-1-1-1z" fill="#578FFF" opacity=".65"/><path d="M140.7 114.9h-16c-.5 0-.9-.4-.9-.9s.4-.9.9-.9h16c.5 0 .9.4.9.9s-.4.9-.9.9z" fill="#CDF"/><path d="M132.7 108.5c-6.3 0-11.3-5.1-11.3-11.3 0-6.2 5.1-11.3 11.3-11.3 6.2 0 11.3 5.1 11.3 11.3 0 6.2-5.1 11.3-11.3 11.3z" fill="#CDF" opacity=".75"/><path d="M103.3 161.7h-49c-.5 0-.9-.4-.9-.9s.4-.9.9-.9h49c.5 0 .9.4.9.9s-.4.9-.9.9z" fill="#578FFF"/><path d="M133.3 167h-79c-.5 0-.9-.4-.9-.9s.4-.9.9-.9h79c.5 0 .9.4.9.9s-.4.9-.9.9zm0 4.9h-79c-.5 0-.9-.4-.9-.9s.4-.9.9-.9h79c.5 0 .9.4.9.9s-.4.9-.9.9zm20 4.8h-99c-.5 0-.9-.4-.9-.9s.4-.9.9-.9h99c.5 0 .9.4.9.9s-.4.9-.9.9zm0 4.8h-99c-.5 0-.9-.4-.9-.9s.4-.9.9-.9h99c.5 0 .9.4.9.9s-.4.9-.9.9zM38.5 159.8H17.9c-1.8 0-3.2 1.4-3.2 3.2v15.3c0 1.8 1.4 3.2 3.2 3.2h20.6c1.8 0 3.2-1.4 3.2-3.2V163c-.1-1.7-1.5-3.2-3.2-3.2zM17.9 161h20.6c1.2 0 2 .9 2 2v11l-3.7-3.7c-.1-.1-.2-.2-.4-.2s-.3.1-.4.2l-5.2 5.5-8.6-8.6c-.2-.2-.5-.2-.8 0l-5.5 5.5V163c-.1-1.1.8-2 2-2zm20.6 19.4H17.9c-1.2 0-2-.9-2-2v-4.1l5.9-5.9 8.6 8.6c.1.1.2.2.4.2s.3-.1.4-.2l5.2-5.5 4.1 4.1v2.8c0 1.1-.9 2-2 2z" fill="#CDF"/><path d="M15.3 174.3l6.6-6.5 9 8.7 5.5-5.8 4.5 4.6.1 3.8-1.1 1.6-22.7.5-1.8-1.5-.1-5.4zm15-9.9c1.5-.4 2.9 1 2.5 2.5-.2.7-.8 1.3-1.5 1.5-1.5.4-2.9-1-2.5-2.5.2-.7.8-1.3 1.5-1.5z" fill="#CDF" opacity=".3"/><path d="M30.8 169.1c-1.5 0-2.8-1.2-2.8-2.8 0-1.6 1.2-2.8 2.8-2.8 1.6 0 2.8 1.2 2.8 2.8 0 1.6-1.3 2.8-2.8 2.8zm0-4.5c-.9 0-1.7.8-1.7 1.7 0 .9.8 1.7 1.7 1.7.9 0 1.7-.8 1.7-1.7 0-.9-.8-1.7-1.7-1.7z" fill="#CDF"/><path d="M52.3 313.8H22.6c-.6 0-1.2-.5-1.2-1.2 0-.6.5-1.2 1.2-1.2h29.7c.6 0 1.2.5 1.2 1.2 0 .6-.6 1.2-1.2 1.2z" fill="#578FFF" opacity=".4"/><path d="M48.3 322.3H26.5c-.5 0-.9-.4-.9-.9s.4-.9.9-.9h21.8c.5 0 .9.4.9.9s-.4.9-.9.9zm0 6.9H26.5c-.5 0-.9-.4-.9-.9s.4-.9.9-.9h21.8c.5 0 .9.4.9.9s-.4.9-.9.9zm0 6.9H26.5c-.5 0-.9-.4-.9-.9s.4-.9.9-.9h21.8c.5 0 .9.4.9.9s-.4.9-.9.9zm0 6.9H26.5c-.5 0-.9-.4-.9-.9s.4-.9.9-.9h21.8c.5 0 .9.4.9.9s-.4.9-.9.9z" fill="#FFF" opacity=".75"/><path d="M99.8 313.8H70.1c-.6 0-1.2-.5-1.2-1.2 0-.6.5-1.2 1.2-1.2h29.7c.6 0 1.2.5 1.2 1.2 0 .6-.6 1.2-1.2 1.2z" fill="#578FFF" opacity=".4"/><path d="M95.8 322.3H74c-.5 0-.9-.4-.9-.9s.4-.9.9-.9h21.8c.5 0 .9.4.9.9s-.4.9-.9.9zm0 6.9H74c-.5 0-.9-.4-.9-.9s.4-.9.9-.9h21.8c.5 0 .9.4.9.9s-.4.9-.9.9zm0 6.9H74c-.5 0-.9-.4-.9-.9s.4-.9.9-.9h21.8c.5 0 .9.4.9.9s-.4.9-.9.9zm0 6.9H74c-.5 0-.9-.4-.9-.9s.4-.9.9-.9h21.8c.5 0 .9.4.9.9s-.4.9-.9.9z" fill="#FFF" opacity=".75"/><path d="M147.3 313.8h-29.7c-.6 0-1.2-.5-1.2-1.2 0-.6.5-1.2 1.2-1.2h29.7c.6 0 1.2.5 1.2 1.2 0 .6-.6 1.2-1.2 1.2z" fill="#578FFF" opacity=".4"/><path d="M143.3 322.3h-21.8c-.5 0-.9-.4-.9-.9s.4-.9.9-.9h21.8c.5 0 .9.4.9.9s-.4.9-.9.9zm0 6.9h-21.8c-.5 0-.9-.4-.9-.9s.4-.9.9-.9h21.8c.5 0 .9.4.9.9s-.4.9-.9.9zm0 6.9h-21.8c-.5 0-.9-.4-.9-.9s.4-.9.9-.9h21.8c.5 0 .9.4.9.9s-.4.9-.9.9zm0 6.9h-21.8c-.5 0-.9-.4-.9-.9s.4-.9.9-.9h21.8c.5 0 .9.4.9.9s-.4.9-.9.9z" fill="#FFF" opacity=".75"/><path d="M14.7 209c0-.5.4-.9.9-.9h49c.5 0 .9.4.9.9s-.4.9-.9.9h-49c-.5 0-.9-.4-.9-.9z" fill="#578FFF"/><path d="M14.7 214.4c0-.5.4-.9.9-.9h79c.5 0 .9.4.9.9s-.4.9-.9.9h-79c-.5 0-.9-.5-.9-.9zm0 4.8c0-.5.4-.9.9-.9h79c.5 0 .9.4.9.9s-.4.9-.9.9h-79c-.5 0-.9-.4-.9-.9zm0 4.8c0-.5.4-.9.9-.9h99c.5 0 .9.4.9.9s-.4.9-.9.9h-99c-.5 0-.9-.4-.9-.9zm0 4.8c0-.5.4-.9.9-.9h99c.5 0 .9.4.9.9s-.4.9-.9.9h-99c-.5 0-.9-.4-.9-.9zM151 208.1h-20.6c-1.8 0-3.2 1.4-3.2 3.2v15.3c0 1.8 1.4 3.2 3.2 3.2H151c1.8 0 3.2-1.4 3.2-3.2v-15.3c0-1.8-1.5-3.2-3.2-3.2zm-20.6 1.1H151c1.2 0 2 .9 2 2v11l-3.7-3.7c-.1-.1-.2-.2-.4-.2s-.3.1-.4.2l-5.2 5.5-8.6-8.6c-.2-.2-.5-.2-.8 0l-5.5 5.5v-9.7c-.1-1.1.9-2 2-2zm20.6 19.4h-20.6c-1.2 0-2-.9-2-2v-4.1l5.9-5.9 8.6 8.6c.1.1.2.2.4.2s.3-.1.4-.2l5.2-5.5 4.1 4.1v2.8c0 1.1-.9 2-2 2z" fill="#CDF"/><path d="M127.8 222.5l6.6-6.5 9.1 8.7 5.4-5.8 4.6 4.6.1 3.8-1.1 1.6-22.8.5-1.8-1.5-.1-5.4zm15-9.9c1.5-.4 2.9 1 2.5 2.5-.2.7-.8 1.3-1.5 1.5-1.5.4-2.9-1-2.5-2.5.2-.7.8-1.3 1.5-1.5z" fill="#CDF" opacity=".3"/><path d="M143.3 217.3c-1.5 0-2.8-1.2-2.8-2.8 0-1.5 1.2-2.8 2.8-2.8 1.5 0 2.8 1.2 2.8 2.8 0 1.6-1.3 2.8-2.8 2.8zm0-4.5c-.9 0-1.7.8-1.7 1.7 0 .9.8 1.7 1.7 1.7.9 0 1.7-.8 1.7-1.7 0-.9-.8-1.7-1.7-1.7z" fill="#CDF"/><path d="M103.3 258.1h-49c-.5 0-.9-.4-.9-.9s.4-.9.9-.9h49c.5 0 .9.4.9.9s-.4.9-.9.9z" fill="#578FFF"/><path d="M133.3 263.5h-79c-.5 0-.9-.4-.9-.9s.4-.9.9-.9h79c.5 0 .9.4.9.9s-.4.9-.9.9zm0 4.8h-79c-.5 0-.9-.4-.9-.9s.4-.9.9-.9h79c.5 0 .9.4.9.9s-.4.9-.9.9zm20 4.8h-99c-.5 0-.9-.4-.9-.9s.4-.9.9-.9h99c.5 0 .9.4.9.9s-.4.9-.9.9zm0 4.8h-99c-.5 0-.9-.4-.9-.9s.4-.9.9-.9h99c.5 0 .9.4.9.9s-.4.9-.9.9zM14.7 259.4v15.3c0 1.8 1.4 3.2 3.2 3.2h20.6c1.8 0 3.2-1.4 3.2-3.2v-15.3c0-1.8-1.4-3.2-3.2-3.2H17.9c-1.7.1-3.2 1.5-3.2 3.2zm25.8-.1v9.7l-5.5-5.5c-.2-.2-.5-.2-.8 0l-8.6 8.6-5.2-5.5c-.1-.1-.2-.2-.4-.2s-.3.1-.4.2l-3.7 3.7v-11c0-1.1.8-2 2-2h20.6c1.1.1 2.1 1 2 2zm-24.6 15.6v-2.8L20 268l5.2 5.5c.1.1.2.2.4.2s.3-.1.4-.2l8.6-8.6 5.9 5.9v4.1c0 1.1-.8 2-2 2H17.9c-1.1-.1-2-1-2-2z" fill="#CDF"/><path d="M41 276.1l-1.8 1.5-22.8-.4-1-1.7v-3.7l4.6-4.7 5.5 5.8 9-8.7 6.6 6.5-.1 5.4zm-13.4-13.8c.4 1.5-1 2.9-2.5 2.5-.7-.2-1.3-.8-1.5-1.5-.4-1.5 1-2.9 2.5-2.5.7.2 1.3.8 1.5 1.5z" fill="#CDF" opacity=".3"/><path d="M22.8 262.7c0-1.5 1.2-2.8 2.8-2.8 1.6 0 2.8 1.2 2.8 2.8 0 1.6-1.2 2.8-2.8 2.8-1.6 0-2.8-1.2-2.8-2.8zm1.1 0c0 .9.8 1.7 1.7 1.7.9 0 1.7-.8 1.7-1.7 0-.9-.8-1.7-1.7-1.7-.9 0-1.7.8-1.7 1.7z" fill="#CDF"/><g fill="#578FFF"><path d="M49.8 27.1H25.2c-1.8 0-3.2 1.4-3.2 3.2v25.3c0 1.8 1.4 3.2 3.2 3.2h24.6c1.8 0 3.2-1.4 3.2-3.2V30.3c-.1-1.8-1.5-3.2-3.2-3.2zm-24.6 1.1h24.6c1.2 0 2 .9 2 2v16.3l-3.7-3.7c-.1-.1-.2-.2-.4-.2s-.3.1-.4.2l-9.2 6.5-9.6-8.6c-.2-.2-.5-.2-.8 0l-4.5 4.5v-15c-.1-1.1.8-2 2-2zm24.6 29.4H25.2c-1.2 0-2-.9-2-2v-8.8l4.9-4.9 9.6 8.6c.1.1.2.2.4.2s.3-.1.4-.2l9.2-6.5 4.1 4.1v7.5c0 1.1-.9 2-2 2z"/><path d="M22.6 46.8l5.6-5.5 10 8.7 9.5-6.8 4.6 4.6v8.5l-1.1 1.6-26.7.5-1.8-1.6-.1-10zm17-11.9c1.5-.4 2.9 1 2.5 2.5-.2.7-.8 1.3-1.5 1.5-1.5.4-2.9-1-2.5-2.5.2-.7.8-1.3 1.5-1.5z" opacity=".3"/><path d="M40.1 39.6c-1.5 0-2.8-1.2-2.8-2.8 0-1.5 1.2-2.8 2.8-2.8 1.6 0 2.8 1.2 2.8 2.8 0 1.6-1.3 2.8-2.8 2.8zm0-4.5c-.9 0-1.7.8-1.7 1.7 0 .9.8 1.7 1.7 1.7.9 0 1.7-.8 1.7-1.7 0-.9-.8-1.7-1.7-1.7z"/></g><g opacity=".5" fill="#FFF"><path d="M22.8 45.8c-.2.1-.1-15.9-.1-15.9l1.3-2.2 2.1-.1h24.6l2 2v18.3l-4.9-4-9.9 6.3-9.6-8.9-5.5 4.5z"/><path d="M49.8 27.1H25.2c-1.8 0-3.2 1.4-3.2 3.2v25.3c0 1.8 1.4 3.2 3.2 3.2h24.6c1.8 0 3.2-1.4 3.2-3.2V30.3c-.1-1.8-1.5-3.2-3.2-3.2zm-24.6 1.1h24.6c1.2 0 2 .9 2 2v16.3l-3.7-3.7c-.1-.1-.2-.2-.4-.2s-.3.1-.4.2l-9.2 6.5-9.6-8.6c-.2-.2-.5-.2-.8 0l-4.5 4.5v-15c-.1-1.1.8-2 2-2zm24.6 29.4H25.2c-1.2 0-2-.9-2-2v-8.8l4.9-4.9 9.6 8.6c.1.1.2.2.4.2s.3-.1.4-.2l9.2-6.5 4.1 4.1v7.5c0 1.1-.9 2-2 2z"/><path opacity=".2" d="M22.6 46.8l5.6-5.5 10 8.7 9.5-6.8 4.6 4.6v8.5l-1.1 1.6-26.7.5-1.8-1.6z"/><path d="M39.6 34.9c1.5-.4 2.9 1 2.5 2.5-.2.7-.8 1.3-1.5 1.5-1.5.4-2.9-1-2.5-2.5.2-.7.8-1.3 1.5-1.5z" opacity=".3"/><path d="M22.8 45.8c-.2.1-.1-15.9-.1-15.9l1.3-2.2 2.1-.1h24.6l2 2v18.3l-4.9-4-9.9 6.3-9.6-8.9-5.5 4.5z"/><path d="M22.8 45.8c-.2.1-.1-15.9-.1-15.9l1.3-2.2 2.1-.1h24.6l2 2v18.3l-4.9-4-9.9 6.3-9.6-8.9-5.5 4.5z"/><path d="M40.1 39.6c-1.5 0-2.8-1.2-2.8-2.8 0-1.5 1.2-2.8 2.8-2.8 1.6 0 2.8 1.2 2.8 2.8 0 1.6-1.3 2.8-2.8 2.8zm0-4.5c-.9 0-1.7.8-1.7 1.7 0 .9.8 1.7 1.7 1.7.9 0 1.7-.8 1.7-1.7 0-.9-.8-1.7-1.7-1.7z"/></g><path d="M39.5 30.5h1.1v2.3h-1.1v-2.3zm0 10.1h1.1v2.3h-1.1v-2.3zm3.64-6.277l-.778-.778 1.627-1.626.777.778-1.626 1.626zm-7.1 7.163l-.778-.778 1.627-1.626.777.778-1.626 1.626zm1.655-7.98l-.778.777-1.626-1.626.778-.778 1.626 1.627zm7.1 7.163l-.778.778-1.626-1.627.778-.777 1.626 1.626zM44 36.2h2.3v1.1H44v-1.1zm-10.2 0h2.3v1.1h-2.3v-1.1z" fill="#578FFF" opacity=".3"/></g></svg>