<svg width="63" height="62" viewBox="0 0 63 62" xmlns="http://www.w3.org/2000/svg"><title>loader</title><g fill="none" fill-rule="evenodd"><path d="M31.5 12c-3.2 0-5.8-2.6-5.8-5.8C25.7 3 28.3.4 31.5.4c3.2 0 5.8 2.6 5.8 5.8 0 3.2-2.6 5.8-5.8 5.8z" fill="#578FFF"/><path d="M31.5 61.7c-3.2 0-5.8-2.6-5.8-5.8 0-3.2 2.6-5.8 5.8-5.8 3.2 0 5.8 2.6 5.8 5.8 0 3.2-2.6 5.8-5.8 5.8z" fill="#ABC7FF"/><path d="M49.1 19.3c-1.6 0-3-.6-4.1-1.7-2.3-2.3-2.3-6 0-8.3 1.1-1.1 2.6-1.7 4.1-1.7 1.6 0 3 .6 4.1 1.7 2.3 2.3 2.3 6 0 8.3-1.1 1.1-2.6 1.7-4.1 1.7z" fill="#EAF1FF"/><path d="M13.9 54.4c-1.6 0-3-.6-4.1-1.7-2.3-2.3-2.3-6 0-8.3 1.1-1.1 2.6-1.7 4.1-1.7 1.6 0 3 .6 4.1 1.7 2.3 2.3 2.3 6 0 8.3-1 1.1-2.5 1.7-4.1 1.7z" fill="#96B9FF"/><path d="M13.9 19.3c-1.6 0-3-.6-4.1-1.7-2.3-2.3-2.3-6 0-8.3 1.1-1.1 2.6-1.7 4.1-1.7 1.6 0 3 .6 4.1 1.7 2.3 2.3 2.3 6 0 8.3-1 1.1-2.5 1.7-4.1 1.7z" fill="#6C9DFF"/><path d="M49.1 54.4c-1.6 0-3-.6-4.1-1.7-2.3-2.3-2.3-6 0-8.3 1.1-1.1 2.6-1.7 4.1-1.7 1.6 0 3 .6 4.1 1.7 2.3 2.3 2.3 6 0 8.3-1.1 1.1-2.6 1.7-4.1 1.7z" fill="#C0D5FF"/><g><path d="M56.3 36.9c-3.2 0-5.8-2.6-5.8-5.8 0-3.2 2.6-5.8 5.8-5.8 3.2 0 5.8 2.6 5.8 5.8.1 3.2-2.5 5.8-5.8 5.8z" fill="#D5E3FF"/><path d="M6.7 36.9c-3.2 0-5.8-2.6-5.8-5.8 0-3.2 2.6-5.8 5.8-5.8 3.2 0 5.8 2.6 5.8 5.8 0 3.2-2.6 5.8-5.8 5.8z" fill="#81ABFF"/></g></g></svg>