<svg width="204" height="163" viewBox="0 0 204 163" xmlns="http://www.w3.org/2000/svg"><title>money_page</title><g fill="none" fill-rule="evenodd"><path d="M194.6 162.7H9.4c-5.1 0-9.2-4.1-9.2-9.2V9.6C.2 4.5 4.3.4 9.4.4h185.2c5.1 0 9.2 4.1 9.2 9.2v143.9c0 5.1-4.1 9.2-9.2 9.2z" fill="#F66"/><path d="M194.6 162.7H9.4c-5.1 0-9.2-4.1-9.2-9.2V9.6C.2 4.5 4.3.4 9.4.4h185.2c5.1 0 9.2 4.1 9.2 9.2v143.9c0 5.1-4.1 9.2-9.2 9.2z" fill="#FFF" opacity=".2"/><path d="M203.8 28V9.6c0-5.1-4.1-9.2-9.2-9.2H9.4C4.3.4.2 4.5.2 9.6V28h203.6z" fill="#F66"/><g transform="translate(10 9)"><circle fill="#161F3C" opacity=".4" cx="5.9" cy="5.5" r="5"/><circle fill="#161F3C" opacity=".4" cx="20.9" cy="5.5" r="5"/><circle fill="#161F3C" opacity=".4" cx="35.9" cy="5.5" r="5"/><path d="M178 .5H63.7c-2.8 0-5 2.2-5 5s2.2 5 5 5H178c2.8 0 5-2.2 5-5s-2.2-5-5-5z" fill="#FFF" opacity=".25"/></g></g></svg>