<svg width="184" height="108" viewBox="0 0 184 108" xmlns="http://www.w3.org/2000/svg"><title>Group 2</title><g fill="none" fill-rule="evenodd"><g><path d="M43.8 17.6L17.4 44c-1 1-2.7 1-3.7 0L1.2 31.5c-1-1-1-2.7 0-3.7L27.6 1.4c1-1 2.7-1 3.7 0l12.5 12.5c1 1.1 1 2.7 0 3.7z" fill="#F66"/><path d="M25.5 7.7l-18 18c-.4.4-.5 1-.2 1.5.9 1.5.9 3.3 0 4.8-.3.5-.2 1.1.2 1.5l4.2 4.2c.4.4 1 .5 1.5.2 1.4-.9 3.3-.9 4.7 0 .5.3 1.1.2 1.5-.2l18-18c.4-.4.5-1 .2-1.5-.9-1.5-.9-3.3 0-4.8.3-.5.2-1.1-.2-1.5l-4.2-4.2c-.4-.4-1-.5-1.5-.2-1.5.9-3.3.9-4.8 0-.4-.2-1-.2-1.4.2z" fill="#FFF"/><circle fill="#F66" opacity=".2" cx="22.5" cy="22.7" r="5.4"/><circle fill="#F66" opacity=".2" cx="22.5" cy="22.7" r="5.4"/><g fill="#F66" opacity=".2"><path d="M33 13.4l-3.2 3.2c-.3.3-.8.3-1.1 0l-.1-.1c-.3-.3-.3-.8 0-1.1l3.2-3.2c.3-.3.8-.3 1.1 0l.1.1c.3.3.3.8 0 1.1zM16.4 30l-3.2 3.2c-.3.3-.8.3-1.1 0l-.1-.1c-.3-.3-.3-.8 0-1.1l3.2-3.2c.3-.3.8-.3 1.1 0l.1.1c.3.3.3.8 0 1.1z"/></g></g><g transform="translate(7 47)"><path d="M30.1 13.1L12.4 30.8c-1 1-2.7 1-3.7 0L.8 22.9c-1-1-1-2.7 0-3.7L18.5 1.5c1-1 2.7-1 3.7 0l7.9 7.9c1 1.1 1 2.7 0 3.7z" fill="#F66"/><path d="M17.6 5.6L4.8 18.4c-.3.3-.3.7-.1 1.1.6 1 .6 2.3 0 3.4-.2.3-.2.8.1 1l3 3c.3.3.7.3 1 .1 1-.6 2.3-.6 3.4 0 .3.2.8.2 1.1-.1L26.2 14c.3-.3.3-.7.1-1-.6-1-.6-2.4 0-3.4.2-.3.2-.8-.1-1.1l-3-3c-.3-.3-.7-.3-1.1-.1-1 .6-2.4.6-3.4 0-.3-.2-.8-.1-1.1.2z" fill="#FFF"/><circle fill="#F66" opacity=".2" cx="15.5" cy="16.2" r="3.9"/><circle fill="#F66" opacity=".2" cx="15.5" cy="16.2" r="3.9"/><g fill="#F66" opacity=".2"><path d="M23 9.6l-2.3 2.3c-.2.2-.6.2-.8 0l-.1-.1c-.2-.2-.2-.6 0-.8l2.3-2.3c.2-.2.6-.2.8 0l.1.1c.2.2.2.6 0 .8zM11.2 21.4l-2.3 2.3c-.2.2-.6.2-.8 0l-.1-.1c-.2-.2-.2-.6 0-.8l2.3-2.3c.2-.2.6-.2.8 0l.1.1c.2.2.2.6 0 .8z"/></g></g><g transform="translate(10 82)"><path d="M24.2 10.6L10.3 24.5c-1 1-2.7 1-3.7 0L.8 18.7c-1-1-1-2.7 0-3.7L14.7 1.1c1-1 2.7-1 3.7 0l5.8 5.8c1 1 1 2.7 0 3.7z" fill="#F66"/><path d="M14.3 4L3.8 14.5c-.2.2-.3.6-.1.9.5.8.5 1.9 0 2.8-.2.3-.1.6.1.9l2.5 2.5c.2.2.6.3.9.1.8-.5 1.9-.5 2.8 0 .3.2.6.1.9-.1L21.5 11c.2-.2.3-.6.1-.9-.5-.9-.5-1.9 0-2.8.2-.3.1-.6-.1-.9L19.1 4c-.2-.2-.6-.3-.9-.1-.9.5-1.9.5-2.8 0-.6-.1-.9-.1-1.1.1z" fill="#FFF"/><circle fill="#F66" opacity=".2" cx="12.5" cy="12.8" r="3.2"/><circle fill="#F66" opacity=".2" cx="12.5" cy="12.8" r="3.2"/><g fill="#F66" opacity=".2"><path d="M18.7 7.3l-2.1 2.1c-.1.1-.3.1-.5 0l-.3-.3c-.1-.1-.1-.3 0-.5l2.1-2.1c.1-.1.3-.1.5 0l.3.3c.2.1.2.3 0 .5zM9 17l-2 2c-.1.1-.3.1-.5 0l-.3-.3c-.1-.1-.1-.3 0-.5l2.1-2.1c.1-.1.3-.1.5 0l.3.3c.1.2.1.4-.1.6z"/></g></g><g><g transform="translate(70)"><path d="M43.4 17.6L17.1 44c-1 1-2.7 1-3.7 0L.9 31.5c-1-1-1-2.7 0-3.7L27.3 1.4c1-1 2.7-1 3.7 0l12.5 12.5c1 1.1 1 2.7-.1 3.7z" fill="#F66"/><path d="M25.2 7.7l-18 18c-.4.4-.5 1-.2 1.5.9 1.5.9 3.3 0 4.8-.3.5-.2 1.1.2 1.5l4.2 4.2c.4.4 1 .5 1.5.2 1.4-.9 3.3-.9 4.7 0 .5.3 1.1.2 1.5-.2l18-18c.4-.4.5-1 .2-1.5-.9-1.5-.9-3.3 0-4.8.3-.5.2-1.1-.2-1.5l-4.2-4.2c-.4-.4-1-.5-1.5-.2-1.5.9-3.3.9-4.8 0-.4-.2-1-.2-1.4.2z" fill="#FFF"/><circle fill="#F66" opacity=".2" cx="22.1" cy="22.7" r="5.4"/><circle fill="#F66" opacity=".2" cx="22.1" cy="22.7" r="5.4"/><g fill="#F66" opacity=".2"><path d="M32.7 13.4l-3.2 3.2c-.3.3-.8.3-1.1 0l-.1-.1c-.3-.3-.3-.8 0-1.1l3.2-3.2c.3-.3.8-.3 1.1 0l.1.1c.3.3.3.8 0 1.1zM16.1 30l-3.2 3.2c-.3.3-.8.3-1.1 0l-.1-.1c-.3-.3-.3-.8 0-1.1l3.2-3.2c.3-.3.8-.3 1.1 0l.1.1c.3.3.3.8 0 1.1z"/></g></g><g transform="translate(76 47)"><path d="M30.8 13.1L13.1 30.8c-1 1-2.7 1-3.7 0l-7.9-7.9c-1-1-1-2.7 0-3.7L19.2 1.5c1-1 2.7-1 3.7 0l7.9 7.9c1 1.1 1 2.7 0 3.7z" fill="#F66"/><path d="M18.3 5.6L5.5 18.4c-.3.3-.3.7-.1 1.1.6 1 .6 2.3 0 3.4-.2.3-.2.8.1 1l3 3c.3.3.7.3 1 .1 1-.6 2.3-.6 3.4 0 .3.2.8.2 1.1-.1L26.9 14c.3-.3.3-.7.1-1-.6-1-.6-2.4 0-3.4.2-.3.2-.8-.1-1.1l-3-3c-.3-.3-.7-.3-1.1-.1-1 .6-2.4.6-3.4 0-.4-.2-.8-.1-1.1.2z" fill="#FFF"/><circle fill="#F66" opacity=".2" cx="16.1" cy="16.2" r="3.9"/><circle fill="#F66" opacity=".2" cx="16.1" cy="16.2" r="3.9"/><g fill="#F66" opacity=".2"><path d="M23.7 9.6l-2.3 2.3c-.2.2-.6.2-.8 0l-.1-.1c-.2-.2-.2-.6 0-.8l2.3-2.3c.2-.2.6-.2.8 0l.1.1c.2.2.2.6 0 .8zM11.8 21.4l-2.3 2.3c-.2.2-.6.2-.8 0l-.1-.1c-.2-.2-.2-.6 0-.8l2.3-2.3c.2-.2.6-.2.8 0l.1.1c.3.2.3.6 0 .8z"/></g></g><g transform="translate(79 82)"><path d="M24.8 10.6L10.9 24.5c-1 1-2.7 1-3.7 0l-5.8-5.8c-1-1-1-2.7 0-3.7L15.3 1.1c1-1 2.7-1 3.7 0l5.8 5.8c1.1 1 1.1 2.7 0 3.7z" fill="#F66"/><path d="M14.9 4L4.4 14.5c-.2.2-.3.6-.1.9.5.8.5 1.9 0 2.8-.2.3-.1.6.1.9l2.5 2.5c.2.2.6.3.9.1.8-.5 1.9-.5 2.8 0 .3.2.6.1.9-.1L22.1 11c.2-.2.3-.6.1-.9-.5-.9-.5-1.9 0-2.8.2-.3.1-.6-.1-.9L19.7 4c-.2-.2-.6-.3-.9-.1-.9.5-1.9.5-2.8 0-.5-.1-.8-.1-1.1.1z" fill="#FFF"/><circle fill="#F66" opacity=".2" cx="13.1" cy="12.8" r="3.2"/><circle fill="#F66" opacity=".2" cx="13.1" cy="12.8" r="3.2"/><g fill="#F66" opacity=".2"><path d="M19.4 7.3l-2.1 2.1c-.1.1-.3.1-.5 0l-.3-.3c-.1-.1-.1-.3 0-.5l2.1-2.1c.1-.1.3-.1.5 0l.3.3c.1.1.1.3 0 .5zM9.7 17l-2.1 2.1c-.1.1-.3.1-.5 0l-.3-.3c-.1-.1-.1-.3 0-.5l2.1-2.1c.1-.1.3-.1.5 0l.3.3c.1.1.1.3 0 .5z"/></g></g></g><g><g transform="translate(139)"><path d="M44.1 17.6L17.7 44c-1 1-2.7 1-3.7 0L1.5 31.5c-1-1-1-2.7 0-3.7L27.9 1.4c1-1 2.7-1 3.7 0l12.5 12.5c1 1.1 1 2.7 0 3.7z" fill="#F66"/><path d="M25.9 7.7l-18 18c-.4.4-.5 1-.2 1.5.9 1.5.9 3.3 0 4.8-.3.5-.2 1.1.2 1.5l4.2 4.2c.4.4 1 .5 1.5.2 1.4-.9 3.3-.9 4.7 0 .5.3 1.1.2 1.5-.2l18-18c.4-.4.5-1 .2-1.5-.9-1.5-.9-3.3 0-4.8.3-.5.2-1.1-.2-1.5l-4.2-4.2c-.4-.4-1-.5-1.5-.2-1.5.9-3.3.9-4.8 0-.4-.2-1.1-.2-1.4.2z" fill="#FFF"/><circle fill="#F66" opacity=".2" cx="22.8" cy="22.7" r="5.4"/><circle fill="#F66" opacity=".2" cx="22.8" cy="22.7" r="5.4"/><g fill="#F66" opacity=".2"><path d="M33.3 13.4l-3.2 3.2c-.3.3-.8.3-1.1 0l-.1-.1c-.3-.3-.3-.8 0-1.1l3.2-3.2c.3-.3.8-.3 1.1 0l.1.1c.4.3.4.8 0 1.1zM16.8 30l-3.2 3.2c-.3.3-.8.3-1.1 0l-.1-.1c-.3-.3-.3-.8 0-1.1l3.2-3.2c.3-.3.8-.3 1.1 0l.1.1c.3.3.3.8 0 1.1z"/></g></g><g transform="translate(146 47)"><path d="M30.5 13.1L12.8 30.8c-1 1-2.7 1-3.7 0l-7.9-7.9c-1-1-1-2.7 0-3.7L18.9 1.5c1-1 2.7-1 3.7 0l7.9 7.9c1 1.1 1 2.7 0 3.7z" fill="#F66"/><path d="M18 5.6L5.2 18.4c-.3.3-.3.7-.1 1.1.6 1 .6 2.3 0 3.4-.2.3-.2.8.1 1l3 3c.3.3.7.3 1 .1 1-.6 2.3-.6 3.4 0 .3.2.8.2 1.1-.1L26.6 14c.3-.3.3-.7.1-1-.6-1-.6-2.4 0-3.4.2-.3.2-.8-.1-1.1l-3-3c-.3-.3-.7-.3-1.1-.1-1 .6-2.4.6-3.4 0-.4-.2-.8-.1-1.1.2z" fill="#FFF"/><circle fill="#F66" opacity=".2" cx="15.8" cy="16.2" r="3.9"/><circle fill="#F66" opacity=".2" cx="15.8" cy="16.2" r="3.9"/><g fill="#F66" opacity=".2"><path d="M23.3 9.6L21 11.9c-.2.2-.6.2-.8 0l-.1-.1c-.2-.2-.2-.6 0-.8l2.3-2.3c.2-.2.6-.2.8 0l.1.1c.2.2.2.6 0 .8zM11.5 21.4l-2.3 2.3c-.2.2-.6.2-.8 0l-.1-.1c-.2-.2-.2-.6 0-.8l2.3-2.3c.2-.2.6-.2.8 0l.1.1c.2.2.2.6 0 .8z"/></g></g><g transform="translate(149 82)"><path d="M24.5 10.6L10.6 24.5c-1 1-2.7 1-3.7 0l-5.8-5.8c-1-1-1-2.7 0-3.7L15 1.1c1-1 2.7-1 3.7 0l5.8 5.8c1 1 1 2.7 0 3.7z" fill="#F66"/><path d="M14.6 4L4 14.6c-.2.2-.3.6-.1.9.5.8.5 1.9 0 2.8-.2.3-.1.6.1.9l2.5 2.5c.2.2.6.3.9.1.8-.5 1.9-.5 2.8 0 .3.2.6.1.9-.1l10.6-10.6c.2-.2.3-.6.1-.9-.5-.9-.5-1.9 0-2.8.2-.3.1-.6-.1-.9l-2.4-2.4c-.2-.2-.6-.3-.9-.1-.9.5-1.9.5-2.8 0-.4-.2-.8-.2-1 0z" fill="#FFF"/><circle fill="#F66" opacity=".2" cx="12.8" cy="12.8" r="3.2"/><circle fill="#F66" opacity=".2" cx="12.8" cy="12.8" r="3.2"/><g fill="#F66" opacity=".2"><path d="M19.1 7.3L17 9.4c-.1.1-.3.1-.5 0l-.3-.3c-.1-.1-.1-.3 0-.5l2.1-2.1c.1-.1.3-.1.5 0l.3.3c.1.1.1.3 0 .5zM9.4 17l-2.1 2.1c-.1.1-.3.1-.5 0l-.3-.3c-.1-.1-.1-.3 0-.5l2.1-2.1c.1-.1.3-.1.5 0l.3.3c.1.1.1.3 0 .5z"/></g></g></g></g></svg>