<svg width="174" height="363" viewBox="0 0 174 363" xmlns="http://www.w3.org/2000/svg"><title>red-content</title><g fill="none" fill-rule="evenodd"><path d="M166.1.4h-55.2c-.9 0-1.6.7-1.6 1.6 0 .9.7 1.6 1.6 1.6h55.2c.9 0 1.6-.7 1.6-1.6 0-.9-.7-1.6-1.6-1.6z" fill="#F66"/><path d="M166.1.4h-55.2c-.9 0-1.6.7-1.6 1.6 0 .9.7 1.6 1.6 1.6h55.2c.9 0 1.6-.7 1.6-1.6 0-.9-.7-1.6-1.6-1.6z" fill="#161F3C" opacity=".25"/><path d="M161.1 8.7h-37.2c-.9 0-1.6.7-1.6 1.6 0 .9.7 1.6 1.6 1.6h37.2c.9 0 1.6-.7 1.6-1.6 0-.8-.7-1.6-1.6-1.6zM161.1 17.1h-37.2c-.9 0-1.6.7-1.6 1.6 0 .9.7 1.6 1.6 1.6h37.2c.9 0 1.6-.7 1.6-1.6 0-.9-.7-1.6-1.6-1.6zM161.1 25.4h-37.2c-.9 0-1.6.7-1.6 1.6 0 .9.7 1.6 1.6 1.6h37.2c.9 0 1.6-.7 1.6-1.6 0-.9-.7-1.6-1.6-1.6z" fill="#F66" opacity=".5"/><path d="M115 8.7c-.9 0-1.6.7-1.6 1.6 0 .9.7 1.6 1.6 1.6.9 0 1.6-.7 1.6-1.6.1-.8-.7-1.6-1.6-1.6zM115 17.1c-.9 0-1.6.7-1.6 1.6 0 .9.7 1.6 1.6 1.6.9 0 1.6-.7 1.6-1.6.1-.9-.7-1.6-1.6-1.6zM115 25.4c-.9 0-1.6.7-1.6 1.6 0 .9.7 1.6 1.6 1.6.9 0 1.6-.7 1.6-1.6.1-.9-.7-1.6-1.6-1.6z" fill="#F66"/><path d="M115 8.7c-.9 0-1.6.7-1.6 1.6 0 .9.7 1.6 1.6 1.6.9 0 1.6-.7 1.6-1.6.1-.8-.7-1.6-1.6-1.6zM115 17.1c-.9 0-1.6.7-1.6 1.6 0 .9.7 1.6 1.6 1.6.9 0 1.6-.7 1.6-1.6.1-.9-.7-1.6-1.6-1.6zM115 25.4c-.9 0-1.6.7-1.6 1.6 0 .9.7 1.6 1.6 1.6.9 0 1.6-.7 1.6-1.6.1-.9-.7-1.6-1.6-1.6z" fill="#161F3C" opacity=".4"/><path d="M84.8.4h-79C2.9.4.6 2.7.6 5.6V107c0 2.9 2.3 5.2 5.2 5.2h79c2.9 0 5.2-2.3 5.2-5.2V5.6C90 2.7 87.7.4 84.8.4z" fill="#F66"/><path fill="#F99" d="M58.6 36.1L37.1 8.7 15.6 36.1z"/><path fill="#578FFF" d="M58.6 36.1L37.1 8.7l9.2 27.4z"/><path fill="#F66" d="M58.6 36.1L37.1 8.7l9.2 27.4z"/><path fill="#FFF" d="M34.6 15.9l1.7 2.6 3.1-3 3.8 3.7.6-2-6.7-8.5-6.4 8.2.3 2.5z"/><path fill="#161F3C" opacity=".4" d="M58.6 36.1L37.1 8.7l9.2 27.4z"/><path fill="#CDF" d="M64.9 36.1l-11.8-15-11.8 15z"/><path fill="#F99" d="M64.9 36.1l-11.8-15-11.8 15z"/><path fill="#FFF" opacity=".4" d="M64.9 36.1l-11.8-15-11.8 15z"/><path fill="#F66" d="M64.9 36.1l-11.8-15 5 15z"/><path fill="#161F3C" opacity=".4" d="M64.9 36.1l-11.8-15 5 15z"/><path fill="#FFF" d="M51.7 25l1 1.5 1.7-1.7 2 2 .4-1-3.7-4.7-3.5 4.5.1 1.4z"/><path d="M85.6 40.9c-.2-2.7-2.4-4.7-5.1-4.7H8.7c-2.7 0-4.9 2.1-5.1 4.7h82z" fill="#161F3C" opacity=".15"/><path d="M79.5 67.7c-.4 0-.8-.3-.8-.8v-8.7h1.6v8.7c0 .5-.3.8-.8.8z" fill="#161F3C" opacity=".5"/><path d="M90 66.3H27.6c-3.5 0-6.4 2.7-6.7 6.2H90v-6.2z" fill="#161F3C" opacity=".15"/><path d="M90 72.4H10.5c-3.5 0-6.4 2.7-6.7 6.2H90v-6.2z" fill="#F99"/><path fill="#161F3C" opacity=".4" d="M48.9 57.2H52v9.2h-3.1zM65.8 57.2h3.1v9.2h-3.1zM31.9 57.2H35v9.2h-3.1z"/><path fill="#F99" d="M31.9 48.2h37v12.7h-37z"/><path fill="#F66" d="M70.4 48.5l-20-17.8-20 17.8z"/><path fill="#161F3C" opacity=".4" d="M70.4 48.5l-20-17.8-20 17.8z"/><path d="M43.6 57.6h-3.1c-1.1 0-2-.9-2-2v-2.5c0-1.1.9-2 2-2h3.1c1.1 0 2 .9 2 2v2.5c0 1.1-.9 2-2 2zM60.3 57.6h-3.1c-1.1 0-2-.9-2-2v-2.5c0-1.1.9-2 2-2h3.1c1.1 0 2 .9 2 2v2.5c0 1.1-.9 2-2 2z" fill="#FFF"/><path d="M87.4 52.2c0 4.3-3.5 7.8-7.8 7.8s-7.8-3.5-7.8-7.8 7.8-17.4 7.8-17.4 7.8 13.1 7.8 17.4z" fill="#F99"/><circle fill="#F99" cx="72.5" cy="17.9" r="7.1"/><circle fill="#FFF" opacity=".7" cx="72.5" cy="17.9" r="4.1"/><path d="M71.8 89.1c-2.2 0-3.3-1.3-4.3-2.3-.9-1.1-1.5-1.7-2.8-1.7-1.2 0-1.8.6-2.7 1.7-.9 1-2 2.3-4.3 2.3-2.2 0-3.3-1.3-4.3-2.3-.9-1.1-1.5-1.7-2.7-1.7-1.2 0-1.8.6-2.7 1.7-.9 1-2 2.3-4.3 2.3-2.2 0-3.3-1.3-4.3-2.3-.9-1.1-1.5-1.7-2.7-1.7-1.2 0-1.8.6-2.7 1.7-.9 1-2 2.3-4.3 2.3-2.2 0-3.3-1.3-4.3-2.3-.9-1.1-1.5-1.7-2.7-1.7-1.2 0-1.8.6-2.7 1.7-.9 1-2 2.3-4.3 2.3-2.2 0-3.3-1.3-4.3-2.3-.9-1.1-1.5-1.7-2.7-1.7-.6 0-1-.4-1-1s.4-1 1-1c2.2 0 3.3 1.3 4.3 2.3.9 1.1 1.5 1.7 2.7 1.7 1.2 0 1.8-.6 2.7-1.7.9-1 2-2.3 4.3-2.3 2.2 0 3.3 1.3 4.3 2.3.9 1.1 1.5 1.7 2.7 1.7 1.2 0 1.8-.6 2.7-1.7.9-1 2-2.3 4.3-2.3s3.3 1.3 4.3 2.3c.9 1.1 1.5 1.7 2.7 1.7 1.2 0 1.8-.6 2.7-1.7.9-1 2-2.3 4.3-2.3 2.2 0 3.3 1.3 4.3 2.3.9 1.1 1.5 1.7 2.7 1.7 1.2 0 1.8-.6 2.7-1.7.9-1 2-2.3 4.3-2.3 2.2 0 3.3 1.3 4.3 2.3.9 1.1 1.5 1.7 2.8 1.7 1.3 0 1.8-.6 2.8-1.7.9-1 2.1-2.3 4.3-2.3.6 0 1 .4 1 1s-.4 1-1 1c-1.2 0-1.8.6-2.8 1.7-1 1-2.1 2.3-4.3 2.3zM71.8 97.3c-2.2 0-3.3-1.3-4.3-2.3-.9-1.1-1.5-1.7-2.8-1.7-1.2 0-1.8.6-2.7 1.7-.9 1-2 2.3-4.3 2.3-2.2 0-3.3-1.3-4.3-2.3-.9-1.1-1.5-1.7-2.7-1.7-1.2 0-1.8.6-2.7 1.7-.9 1-2 2.3-4.3 2.3-2.2 0-3.3-1.3-4.3-2.3-.9-1.1-1.5-1.7-2.7-1.7-1.2 0-1.8.6-2.7 1.7-.9 1-2 2.3-4.3 2.3-2.2 0-3.3-1.3-4.3-2.3-.9-1.1-1.5-1.7-2.7-1.7-1.2 0-1.8.6-2.7 1.7-.9 1-2 2.3-4.3 2.3-2.2 0-3.3-1.3-4.3-2.3-.9-1.1-1.5-1.7-2.7-1.7-.6 0-1-.4-1-1s.4-1 1-1c2.2 0 3.3 1.3 4.3 2.3.9 1.1 1.5 1.7 2.7 1.7 1.2 0 1.8-.6 2.7-1.7.9-1 2-2.3 4.3-2.3 2.2 0 3.3 1.3 4.3 2.3.9 1.1 1.5 1.7 2.7 1.7 1.2 0 1.8-.6 2.7-1.7.9-1 2-2.3 4.3-2.3s3.3 1.3 4.3 2.3c.9 1.1 1.5 1.7 2.7 1.7 1.2 0 1.8-.6 2.7-1.7.9-1 2-2.3 4.3-2.3 2.2 0 3.3 1.3 4.3 2.3.9 1.1 1.5 1.7 2.7 1.7 1.2 0 1.8-.6 2.7-1.7.9-1 2-2.3 4.3-2.3 2.2 0 3.3 1.3 4.3 2.3.9 1.1 1.5 1.7 2.8 1.7 1.3 0 1.8-.6 2.8-1.7.9-1 2.1-2.3 4.3-2.3.6 0 1 .4 1 1s-.4 1-1 1c-1.2 0-1.8.6-2.8 1.7-1 1-2.1 2.3-4.3 2.3zM71.8 105.5c-2.2 0-3.3-1.3-4.3-2.3-.9-1.1-1.5-1.7-2.8-1.7-1.2 0-1.8.6-2.7 1.7-.9 1-2 2.3-4.3 2.3-2.2 0-3.3-1.3-4.3-2.3-.9-1.1-1.5-1.7-2.7-1.7-1.2 0-1.8.6-2.7 1.7-.9 1-2 2.3-4.3 2.3-2.2 0-3.3-1.3-4.3-2.3-.9-1.1-1.5-1.7-2.7-1.7-1.2 0-1.8.6-2.7 1.7-.9 1-2 2.3-4.3 2.3-2.2 0-3.3-1.3-4.3-2.3-.9-1.1-1.5-1.7-2.7-1.7-1.2 0-1.8.6-2.7 1.7-.9 1-2 2.3-4.3 2.3-2.2 0-3.3-1.3-4.3-2.3-.9-1.1-1.5-1.7-2.7-1.7-.6 0-1-.4-1-1s.4-1 1-1c2.2 0 3.3 1.3 4.3 2.3.9 1.1 1.5 1.7 2.7 1.7 1.2 0 1.8-.6 2.7-1.7.9-1 2-2.3 4.3-2.3 2.2 0 3.3 1.3 4.3 2.3.9 1.1 1.5 1.7 2.7 1.7 1.2 0 1.8-.6 2.7-1.7.9-1 2-2.3 4.3-2.3s3.3 1.3 4.3 2.3c.9 1.1 1.5 1.7 2.7 1.7 1.2 0 1.8-.6 2.7-1.7.9-1 2-2.3 4.3-2.3 2.2 0 3.3 1.3 4.3 2.3.9 1.1 1.5 1.7 2.7 1.7 1.2 0 1.8-.6 2.7-1.7.9-1 2-2.3 4.3-2.3 2.2 0 3.3 1.3 4.3 2.3.9 1.1 1.5 1.7 2.8 1.7 1.3 0 1.8-.6 2.8-1.7.9-1 2.1-2.3 4.3-2.3.6 0 1 .4 1 1s-.4 1-1 1c-1.2 0-1.8.6-2.8 1.7-1 1-2.1 2.3-4.3 2.3z" fill="#F99" opacity=".7"/><path d="M20.8 16.2H9.9c-1 0-1.7-.8-1.7-1.8s.8-1.8 1.7-1.8h10.9c1 0 1.8.8 1.8 1.8-.1 1.1-.8 1.8-1.8 1.8zM58.2 13h-7.9c-1 0-1.8-.8-1.8-1.8s.8-1.8 1.8-1.8h7.9c1 0 1.8.8 1.8 1.8s-.8 1.8-1.8 1.8z" fill="#F99" opacity=".5"/><path d="M173.7 362.7v-72.1c0-2-1.6-3.6-3.6-3.6H7.7c-2 0-3.6 1.6-3.6 3.6v72.1h169.6z" fill="#F66" opacity=".3"/><path d="M38.3 355.7H26.6c-.6 0-1.2-.5-1.2-1.2 0-.6.5-1.2 1.2-1.2h11.7c.6 0 1.2.5 1.2 1.2 0 .6-.5 1.2-1.2 1.2zM60.9 355.7H49.2c-.6 0-1.2-.5-1.2-1.2 0-.6.5-1.2 1.2-1.2h11.7c.6 0 1.2.5 1.2 1.2 0 .6-.5 1.2-1.2 1.2zM83.5 355.7H71.8c-.6 0-1.2-.5-1.2-1.2 0-.6.5-1.2 1.2-1.2h11.7c.6 0 1.2.5 1.2 1.2 0 .6-.6 1.2-1.2 1.2zM106.1 355.7H94.4c-.6 0-1.2-.5-1.2-1.2 0-.6.5-1.2 1.2-1.2h11.7c.6 0 1.2.5 1.2 1.2 0 .6-.6 1.2-1.2 1.2zM128.7 355.7H117c-.6 0-1.2-.5-1.2-1.2 0-.6.5-1.2 1.2-1.2h11.7c.6 0 1.2.5 1.2 1.2-.1.6-.6 1.2-1.2 1.2zM151.3 355.7h-11.7c-.6 0-1.2-.5-1.2-1.2 0-.6.5-1.2 1.2-1.2h11.7c.6 0 1.2.5 1.2 1.2-.1.6-.6 1.2-1.2 1.2z" fill="#F66" opacity=".3"/><path d="M56.3 305.8H26.6c-.6 0-1.2-.5-1.2-1.2 0-.6.5-1.2 1.2-1.2h29.7c.6 0 1.2.5 1.2 1.2 0 .6-.6 1.2-1.2 1.2z" fill="#F66" opacity=".4"/><path d="M52.3 314.3H30.5c-.5 0-.9-.4-.9-.9s.4-.9.9-.9h21.8c.5 0 .9.4.9.9s-.4.9-.9.9zM52.3 321.2H30.5c-.5 0-.9-.4-.9-.9s.4-.9.9-.9h21.8c.5 0 .9.4.9.9s-.4.9-.9.9zM52.3 328.1H30.5c-.5 0-.9-.4-.9-.9s.4-.9.9-.9h21.8c.5 0 .9.4.9.9s-.4.9-.9.9zM52.3 335H30.5c-.5 0-.9-.4-.9-.9s.4-.9.9-.9h21.8c.5 0 .9.4.9.9s-.4.9-.9.9z" fill="#FFF" opacity=".75"/><path d="M103.8 305.8H74.1c-.6 0-1.2-.5-1.2-1.2 0-.6.5-1.2 1.2-1.2h29.7c.6 0 1.2.5 1.2 1.2 0 .6-.6 1.2-1.2 1.2z" fill="#F66" opacity=".4"/><path d="M99.8 314.3H78c-.5 0-.9-.4-.9-.9s.4-.9.9-.9h21.8c.5 0 .9.4.9.9s-.4.9-.9.9zM99.8 321.2H78c-.5 0-.9-.4-.9-.9s.4-.9.9-.9h21.8c.5 0 .9.4.9.9s-.4.9-.9.9zM99.8 328.1H78c-.5 0-.9-.4-.9-.9s.4-.9.9-.9h21.8c.5 0 .9.4.9.9s-.4.9-.9.9zM99.8 335H78c-.5 0-.9-.4-.9-.9s.4-.9.9-.9h21.8c.5 0 .9.4.9.9s-.4.9-.9.9z" fill="#FFF" opacity=".75"/><path d="M151.3 305.8h-29.7c-.6 0-1.2-.5-1.2-1.2 0-.6.5-1.2 1.2-1.2h29.7c.6 0 1.2.5 1.2 1.2 0 .6-.6 1.2-1.2 1.2z" fill="#F66" opacity=".4"/><path d="M147.3 314.3h-21.8c-.5 0-.9-.4-.9-.9s.4-.9.9-.9h21.8c.5 0 .9.4.9.9s-.4.9-.9.9zM147.3 321.2h-21.8c-.5 0-.9-.4-.9-.9s.4-.9.9-.9h21.8c.5 0 .9.4.9.9s-.4.9-.9.9zM147.3 328.1h-21.8c-.5 0-.9-.4-.9-.9s.4-.9.9-.9h21.8c.5 0 .9.4.9.9s-.4.9-.9.9zM147.3 335h-21.8c-.5 0-.9-.4-.9-.9s.4-.9.9-.9h21.8c.5 0 .9.4.9.9s-.4.9-.9.9z" fill="#FFF" opacity=".75"/><path d="M3.2 130.3v.1c0 2 1.6 3.6 3.6 3.6h162.5c2 0 3.6-1.6 3.6-3.6v-.1c0-2-1.6-3.6-3.6-3.6H6.8c-2 0-3.6 1.6-3.6 3.6zM13.2 225.8c0 2.1 1.6 3.7 3.6 3.7h142.5c2 0 3.6-1.6 3.6-3.6v-.1c0-2-1.6-3.6-3.6-3.6H16.8c-2 0-3.6 1.6-3.6 3.6z" fill="#F66" opacity=".5"/><path d="M44.5 148.2H17c-2.4 0-4.2 1.9-4.2 4.2v20.5c0 2.4 1.9 4.2 4.2 4.2h27.5c2.4 0 4.2-1.9 4.2-4.2v-20.5c0-2.2-1.9-4.2-4.2-4.2zM17 149.8h27.5c1.5 0 2.7 1.2 2.7 2.7v14.7l-4.9-4.9c-.1-.1-.3-.2-.5-.2s-.4.1-.5.2l-7 7.3L22.7 158c-.3-.3-.7-.3-1 0l-7.3 7.3v-13c-.1-1.3 1.1-2.5 2.6-2.5zm27.5 25.9H17c-1.5 0-2.7-1.2-2.7-2.7v-5.5l7.8-7.8 11.5 11.5c.1.1.3.2.5.2s.4-.1.5-.2l7-7.3 5.5 5.5v3.7c.1 1.4-1.2 2.6-2.6 2.6z" fill="#F66"/><path d="M43.4 185.1H22.7c-.4 0-.8.3-.8.8 0 .4.3.8.8.8h20.7c.4 0 .8-.3.8-.8-.1-.5-.4-.8-.8-.8zM43.4 190.8H22.7c-.4 0-.8.3-.8.8 0 .4.3.8.8.8h20.7c.4 0 .8-.3.8-.8-.1-.4-.4-.8-.8-.8zM43.4 196.6H22.7c-.4 0-.8.3-.8.8 0 .4.3.8.8.8h20.7c.4 0 .8-.3.8-.8-.1-.5-.4-.8-.8-.8zM43.4 202.3H22.7c-.4 0-.8.3-.8.8 0 .4.3.8.8.8h20.7c.4 0 .8-.3.8-.8-.1-.4-.4-.8-.8-.8zM43.4 208.1H22.7c-.4 0-.8.3-.8.8 0 .4.3.8.8.8h20.7c.4 0 .8-.3.8-.8-.1-.5-.4-.8-.8-.8z" fill="#F66" opacity=".3"/><path d="M18 185.1h-1.6c-.4 0-.8.3-.8.8 0 .4.3.8.8.8H18c.4 0 .8-.3.8-.8-.1-.5-.4-.8-.8-.8zM18 190.8h-1.6c-.4 0-.8.3-.8.8 0 .4.3.8.8.8H18c.4 0 .8-.3.8-.8-.1-.4-.4-.8-.8-.8zM18 196.6h-1.6c-.4 0-.8.3-.8.8 0 .4.3.8.8.8H18c.4 0 .8-.3.8-.8-.1-.5-.4-.8-.8-.8zM18 202.3h-1.6c-.4 0-.8.3-.8.8 0 .4.3.8.8.8H18c.4 0 .8-.3.8-.8-.1-.4-.4-.8-.8-.8zM18 208.1h-1.6c-.4 0-.8.3-.8.8 0 .4.3.8.8.8H18c.4 0 .8-.3.8-.8-.1-.5-.4-.8-.8-.8z" fill="#F66"/><path d="M101.7 185.1H81c-.4 0-.8.3-.8.8 0 .4.3.8.8.8h20.7c.4 0 .8-.3.8-.8s-.4-.8-.8-.8zM101.7 190.8H81c-.4 0-.8.3-.8.8 0 .4.3.8.8.8h20.7c.4 0 .8-.3.8-.8 0-.4-.4-.8-.8-.8zM101.7 196.6H81c-.4 0-.8.3-.8.8 0 .4.3.8.8.8h20.7c.4 0 .8-.3.8-.8s-.4-.8-.8-.8zM101.7 202.3H81c-.4 0-.8.3-.8.8 0 .4.3.8.8.8h20.7c.4 0 .8-.3.8-.8 0-.4-.4-.8-.8-.8zM101.7 208.1H81c-.4 0-.8.3-.8.8 0 .4.3.8.8.8h20.7c.4 0 .8-.3.8-.8s-.4-.8-.8-.8z" fill="#F66" opacity=".3"/><path d="M76.3 185.1h-1.6c-.4 0-.8.3-.8.8 0 .4.3.8.8.8h1.6c.4 0 .8-.3.8-.8s-.4-.8-.8-.8zM76.3 190.8h-1.6c-.4 0-.8.3-.8.8 0 .4.3.8.8.8h1.6c.4 0 .8-.3.8-.8 0-.4-.4-.8-.8-.8zM76.3 196.6h-1.6c-.4 0-.8.3-.8.8 0 .4.3.8.8.8h1.6c.4 0 .8-.3.8-.8s-.4-.8-.8-.8zM76.3 202.3h-1.6c-.4 0-.8.3-.8.8 0 .4.3.8.8.8h1.6c.4 0 .8-.3.8-.8 0-.4-.4-.8-.8-.8zM76.3 208.1h-1.6c-.4 0-.8.3-.8.8 0 .4.3.8.8.8h1.6c.4 0 .8-.3.8-.8s-.4-.8-.8-.8z" fill="#F66"/><path d="M158.7 185.1H138c-.4 0-.8.3-.8.8 0 .4.3.8.8.8h20.7c.4 0 .8-.3.8-.8s-.4-.8-.8-.8zM158.7 190.8H138c-.4 0-.8.3-.8.8 0 .4.3.8.8.8h20.7c.4 0 .8-.3.8-.8 0-.4-.4-.8-.8-.8zM158.7 196.6H138c-.4 0-.8.3-.8.8 0 .4.3.8.8.8h20.7c.4 0 .8-.3.8-.8s-.4-.8-.8-.8zM158.7 202.3H138c-.4 0-.8.3-.8.8 0 .4.3.8.8.8h20.7c.4 0 .8-.3.8-.8 0-.4-.4-.8-.8-.8zM158.7 208.1H138c-.4 0-.8.3-.8.8 0 .4.3.8.8.8h20.7c.4 0 .8-.3.8-.8s-.4-.8-.8-.8z" fill="#F66" opacity=".3"/><path d="M133.3 185.1h-1.6c-.4 0-.8.3-.8.8 0 .4.3.8.8.8h1.6c.4 0 .8-.3.8-.8s-.4-.8-.8-.8zM133.3 190.8h-1.6c-.4 0-.8.3-.8.8 0 .4.3.8.8.8h1.6c.4 0 .8-.3.8-.8 0-.4-.4-.8-.8-.8zM133.3 196.6h-1.6c-.4 0-.8.3-.8.8 0 .4.3.8.8.8h1.6c.4 0 .8-.3.8-.8s-.4-.8-.8-.8zM133.3 202.3h-1.6c-.4 0-.8.3-.8.8 0 .4.3.8.8.8h1.6c.4 0 .8-.3.8-.8 0-.4-.4-.8-.8-.8zM133.3 208.1h-1.6c-.4 0-.8.3-.8.8 0 .4.3.8.8.8h1.6c.4 0 .8-.3.8-.8s-.4-.8-.8-.8z" fill="#F66"/><path fill="#F66" opacity=".3" d="M13.5 167.5l8.9-8.7 12 11.6 7.3-7.7 6.1 6.2.1 5-1.4 2.2-30.4.6-2.5-2zM33.6 154.3c2.1-.5 3.9 1.3 3.4 3.4-.2 1-1 1.8-2 2-2.1.5-3.9-1.3-3.4-3.4.2-1 1-1.8 2-2z"/><path d="M34.2 160.6c-2.1 0-3.7-1.6-3.7-3.7s1.6-3.7 3.7-3.7 3.7 1.6 3.7 3.7c0 2-1.6 3.7-3.7 3.7zm0-6c-1.2 0-2.3 1-2.3 2.3 0 1.2 1 2.3 2.3 2.3 1.2 0 2.3-1 2.3-2.3 0-1.3-1-2.3-2.3-2.3zM101.8 148.2H74.3c-2.4 0-4.2 1.9-4.2 4.2v20.5c0 2.4 1.9 4.2 4.2 4.2h27.5c2.4 0 4.2-1.9 4.2-4.2v-20.5c0-2.2-2-4.2-4.2-4.2zm-27.5 1.6h27.5c1.5 0 2.7 1.2 2.7 2.7v14.7l-4.9-4.9c-.1-.1-.3-.2-.5-.2s-.4.1-.5.2l-7 7.3L80 158c-.3-.3-.7-.3-1 0l-7.3 7.3v-13c-.2-1.3 1.1-2.5 2.6-2.5zm27.5 25.9H74.3c-1.5 0-2.7-1.2-2.7-2.7v-5.5l7.8-7.8 11.5 11.5c.1.1.3.2.5.2s.4-.1.5-.2l7-7.3 5.5 5.5v3.7c0 1.4-1.2 2.6-2.6 2.6z" fill="#F66"/><path fill="#F66" opacity=".3" d="M70.8 167.5l8.8-8.7 12.1 11.6 7.3-7.7 6.1 6.2.1 5-1.5 2.2-30.3.6-2.5-2zM90.8 154.3c2.1-.5 3.9 1.3 3.4 3.4-.2 1-1 1.8-2 2-2.1.5-3.9-1.3-3.4-3.4.3-1 1.1-1.8 2-2z"/><path d="M91.5 160.6c-2.1 0-3.7-1.6-3.7-3.7s1.6-3.7 3.7-3.7 3.7 1.6 3.7 3.7c0 2-1.7 3.7-3.7 3.7zm0-6c-1.2 0-2.3 1-2.3 2.3 0 1.2 1 2.3 2.3 2.3 1.2 0 2.3-1 2.3-2.3-.1-1.3-1.1-2.3-2.3-2.3zM159 148.2h-27.5c-2.4 0-4.2 1.9-4.2 4.2v20.5c0 2.4 1.9 4.2 4.2 4.2H159c2.4 0 4.2-1.9 4.2-4.2v-20.5c0-2.2-1.9-4.2-4.2-4.2zm-27.5 1.6H159c1.5 0 2.7 1.2 2.7 2.7v14.7l-4.9-4.9c-.1-.1-.3-.2-.5-.2s-.4.1-.5.2l-7 7.3-11.6-11.6c-.3-.3-.7-.3-1 0l-7.3 7.3v-13c-.1-1.3 1.1-2.5 2.6-2.5zm27.5 25.9h-27.5c-1.5 0-2.7-1.2-2.7-2.7v-5.5l7.8-7.8 11.5 11.5c.1.1.3.2.5.2s.4-.1.5-.2l7-7.3 5.5 5.5v3.7c.1 1.4-1.2 2.6-2.6 2.6z" fill="#F66"/><path fill="#F66" opacity=".3" d="M128 167.5l8.9-8.7 12 11.6 7.3-7.7 6.1 6.2.1 5-1.4 2.2-30.4.6-2.5-2zM148.1 154.3c2.1-.5 3.9 1.3 3.4 3.4-.2 1-1 1.8-2 2-2.1.5-3.9-1.3-3.4-3.4.2-1 1-1.8 2-2z"/><path d="M148.7 160.6c-2.1 0-3.7-1.6-3.7-3.7s1.6-3.7 3.7-3.7 3.7 1.6 3.7 3.7c0 2-1.6 3.7-3.7 3.7zm0-6c-1.2 0-2.3 1-2.3 2.3 0 1.2 1 2.3 2.3 2.3 1.2 0 2.3-1 2.3-2.3 0-1.3-1-2.3-2.3-2.3zM112.6 238.7H63.4c-11.2 0-20.5 9.1-20.5 20.5 0 11.2 9.1 20.5 20.5 20.5h49.2c11.2 0 20.5-9.1 20.5-20.5 0-11.3-9.1-20.5-20.5-20.5z" fill="#F66"/><path d="M134.7 112h-18.1c-2.8 0-5.1-2.3-5.1-5.1V40.2c0-2.8 2.3-5.1 5.1-5.1h18.1c2.8 0 5.1 2.3 5.1 5.1v66.7c0 2.8-2.3 5.1-5.1 5.1z" fill="#F66" opacity=".2"/><path d="M157 46.4h-6.5c-2.8 0-5.1-2.3-5.1-5.1v-.7c0-2.8 2.3-5.1 5.1-5.1h6.5c2.8 0 5.1 2.3 5.1 5.1v.7c0 2.8-2.3 5.1-5.1 5.1zM157 62.8h-6.5c-2.8 0-5.1-2.3-5.1-5.1V57c0-2.8 2.3-5.1 5.1-5.1h6.5c2.8 0 5.1 2.3 5.1 5.1v.7c0 2.8-2.3 5.1-5.1 5.1zM157 79.2h-6.5c-2.8 0-5.1-2.3-5.1-5.1v-.7c0-2.8 2.3-5.1 5.1-5.1h6.5c2.8 0 5.1 2.3 5.1 5.1v.7c0 2.8-2.3 5.1-5.1 5.1zM157 95.6h-6.5c-2.8 0-5.1-2.3-5.1-5.1v-.7c0-2.8 2.3-5.1 5.1-5.1h6.5c2.8 0 5.1 2.3 5.1 5.1v.7c0 2.8-2.3 5.1-5.1 5.1zM157 112h-6.5c-2.8 0-5.1-2.3-5.1-5.1v-.7c0-2.8 2.3-5.1 5.1-5.1h6.5c2.8 0 5.1 2.3 5.1 5.1v.7c0 2.8-2.3 5.1-5.1 5.1z" fill="#F66" opacity=".1"/><text fill="#FFF" font-family="Helvetica" font-size="14.17"><tspan x="54.363" y="263.253">BUY NOW</tspan></text></g></svg>