<svg width="204" height="163" viewBox="0 0 204 163" xmlns="http://www.w3.org/2000/svg"><title>thanks_page</title><g fill="none" fill-rule="evenodd"><path d="M194.6 162.7H9.4c-5.1 0-9.2-4.1-9.2-9.2V9.6C.2 4.5 4.3.4 9.4.4h185.2c5.1 0 9.2 4.1 9.2 9.2v143.9c0 5.1-4.1 9.2-9.2 9.2z" fill="#F66"/><path d="M194.6 162.7H9.4c-5.1 0-9.2-4.1-9.2-9.2V9.6C.2 4.5 4.3.4 9.4.4h185.2c5.1 0 9.2 4.1 9.2 9.2v143.9c0 5.1-4.1 9.2-9.2 9.2z" fill="#FFF" opacity=".2"/><path d="M203.8 28V9.6c0-5.1-4.1-9.2-9.2-9.2H9.4C4.3.4.2 4.5.2 9.6V28h203.6z" fill="#F66"/><g transform="translate(9 9)"><circle fill="#161F3C" opacity=".4" cx="5.4" cy="5.5" r="5"/><circle fill="#161F3C" opacity=".4" cx="20.4" cy="5.5" r="5"/><circle fill="#161F3C" opacity=".4" cx="35.4" cy="5.5" r="5"/><path d="M177.5.5H63.2c-2.8 0-5 2.2-5 5s2.2 5 5 5h114.3c2.8 0 5-2.2 5-5s-2.2-5-5-5z" fill="#FFF" opacity=".25"/></g><path d="M158.2 97.6H30.9c-.9 0-1.6.7-1.6 1.6 0 .9.7 1.6 1.6 1.6h127.3c.9 0 1.6-.7 1.6-1.6 0-.9-.7-1.6-1.6-1.6zM118.2 105.9H81c-.9 0-1.6.7-1.6 1.6 0 .9.7 1.6 1.6 1.6h37.2c.9 0 1.6-.7 1.6-1.6 0-.9-.7-1.6-1.6-1.6z" fill="#F66" opacity=".4"/><text fill="#FFF" font-family="Helvetica" font-size="26.058"><tspan x="37.756" y="141.179">Thank You!</tspan></text><path d="M139.2 86.2c3.1 0 5.4-2.7 5-5.7-2.8-20.8-20.7-36.8-42.2-36.8-21.5 0-39.4 16-42.2 36.8-.4 3 1.9 5.7 5 5.7h74.4z" fill="#FFF"/><path fill="#F66" d="M88.8 65.3h7.5v11.6h-7.5z"/><path fill="#FFF" opacity=".6" d="M88.8 65.3h7.5v11.6h-7.5z"/><path d="M114.2 66.9c1.4-1.4.9-4.1-1.4-4.1h-6.2c.2-1.3.6-3.5.6-3.7-.1-2-1.4-4.3-1.4-4.4-.2-.4-1.4-1-2.5-.8-1.5.3-1.6 1.3-1.6 1.5 0 0 .1 2.6.1 3.3-.7 1.6-3.2 5.7-3.9 6-.2-.1-.4-.2-.6-.2h-7.9c-.7 0-1.2.5-1.2 1.2v10.9c0 .6.5 1 1.1 1h7.1c.6 0 1.1-.5 1.1-1.1v-.4s.3 0 .4.1c.5.3 1 .7 1.8.7H110c3.9 0 3.5-3.5 3.2-4 .7-.7 1.1-2 .5-3 .5-.5 1.2-1.7.5-3zM96 76.5h-6.8V65.6H96v10.9zm16.4-9.7l-.1.3c1.8.5.8 2.6-.5 2.8l-.1.3c1.7.4.9 2.6-.5 2.8l-.1.3c1.4.2 1.1 2.7-1.1 2.7H99.3c-.8 0-1.4-.9-2-.9H97v-8.4c.6-.4 1.3-.9 1.8-1.2.8-.7 4-5.9 4-6.5 0-.6-.1-3.5-.1-3.5s.6-.8 2-.2c0 0 1.2 2.2 1.3 4 0 0-.5 3.6-.8 4.8h7.4c1.9-.2 1.5 2.4-.2 2.7z" fill="#F66"/><path d="M114.2 66.9c1.4-1.4.9-4.1-1.4-4.1h-6.2c.2-1.3.6-3.5.6-3.7-.1-2-1.4-4.3-1.4-4.4-.2-.4-1.4-1-2.5-.8-1.5.3-1.6 1.3-1.6 1.5 0 0 .1 2.6.1 3.3-.7 1.6-3.2 5.7-3.9 6-.2-.1-.4-.2-.6-.2h-7.9c-.7 0-1.2.5-1.2 1.2v10.9c0 .6.5 1 1.1 1h7.1c.6 0 1.1-.5 1.1-1.1v-.4s.3 0 .4.1c.5.3 1 .7 1.8.7H110c3.9 0 3.5-3.5 3.2-4 .7-.7 1.1-2 .5-3 .5-.5 1.2-1.7.5-3zM96 76.5h-6.8V65.6H96v10.9zm16.4-9.7l-.1.3c1.8.5.8 2.6-.5 2.8l-.1.3c1.7.4.9 2.6-.5 2.8l-.1.3c1.4.2 1.1 2.7-1.1 2.7H99.3c-.8 0-1.4-.9-2-.9H97v-8.4c.6-.4 1.3-.9 1.8-1.2.8-.7 4-5.9 4-6.5 0-.6-.1-3.5-.1-3.5s.6-.8 2-.2c0 0 1.2 2.2 1.3 4 0 0-.5 3.6-.8 4.8h7.4c1.9-.2 1.5 2.4-.2 2.7z" fill="#F66"/><path d="M105.6 63.4l8-.1.7 1.4-1 2.1s.8 2 .6 1.9c-.2-.1-.9 1-.9 1l.4 1.6-1.1 1.9.1 1.8-1.5 1-11.9.2-2.3-1.2-.3-9.2 2.3-1.3 3.6-6.3.1-3.5 2-.6 1.2 1 1.2 2.9" fill="#F66" opacity=".3"/></g></svg>